<?xml version="1.0" encoding="UTF-8"?>
<!DOCTYPE svg PUBLIC "-//W3C//DTD SVG 20010904//EN" "http://www.w3.org/TR/2001/REC-SVG-20010904/DTD/svg10.dtd">
<svg xmlns="http://www.w3.org/2000/svg" width="320px" height="240px" viewBox="0 0 320 240" style="background-color: rgba(220,220,220)">
<defs><style>.cls-1{fill:#ffa600;}.cls-2{fill:#b3cb2d;}</style></defs>
<g transform="translate(0 -32)">
<path fill="white" stroke="black" stroke-width="8" d="M 132,212 C 148,169 167,130 197,95 247,96 266,116 283,133 256,168 234,219 218,255 179,220 168,213 131,213 103,182 78,171 44,174 68,131 83,109 115,75 148,71 176,74 196,94" />
<g transform="scale(0.8,0.8) translate(165 100) rotate(40)">
<path class="cls-1" d="M40,28.69v-6a1,1,0,0,0-1.55-.82L14.69,38.31a4.11,4.11,0,0,1-6.45-3.38V27a8.23,8.23,0,0,1,3.55-6.76l7.08-4.89A4.07,4.07,0,0,0,20.63,12V6.38l0-5.39A1,1,0,0,0,19.1.18l-5,3.42A4.08,4.08,0,0,0,12.38,7V9.84L6.3,14A14.57,14.57,0,0,0,0,26v8.89A12.36,12.36,0,0,0,19.38,45.09l18.9-13A4.09,4.09,0,0,0,40,28.69Z"/>
<path class="cls-2" d="M33,10.63l-18.9,13A4.09,4.09,0,0,0,12.35,27v6a1,1,0,0,0,1.55.81L37.71,17.41a4.11,4.11,0,0,1,6.44,3.38v7.9a8.25,8.25,0,0,1-3.55,6.77l-6.33,4.36-.72.5h0a4.06,4.06,0,0,0-1.75,3.34V45.2l0,9.48a1,1,0,0,0,1.55.81l5-3.43A4.05,4.05,0,0,0,40,48.72V45.87l6.06-4.18a14.58,14.58,0,0,0,6.29-12V20.8A12.35,12.35,0,0,0,33,10.63Z"/>
</g></g></svg>
