<?xml version="1.0" encoding="UTF-8" standalone="no"?>
<svg width="300px" height="200px" viewBox="0 0 300 200" version="1.1" xmlns:xlink="http://www.w3.org/1999/xlink" xmlns="http://www.w3.org/2000/svg" xmlns:svg="http://www.w3.org/2000/svg">
<defs>
<radialGradient id="bgrad" r="100%" cx="34%" cy="40%">
  <stop offset="0%" stop-color="#687782" stop-opacity="1"/>
  <stop offset="50%" stop-color="#1e2d38" stop-opacity="1"/>
  <stop offset="100%" stop-color="#1e2d38" stop-opacity="1"/>
</radialGradient>
<g id="question" transform="rotate(45)">
  <path d="m-20 -20 40 0 0 40 -40 0 0 -40 z" fill="#666666" stroke="#ffffff" stroke-width="1"/>
</g>
<g id="format">
  <circle r="20" cx="0" cy="0" stroke="#ffffff" stroke-width="1" fill="#666666"/>
</g>
<text id="no" style="font-family:sans-serif;font-size:8px;" text-anchor="middle" fill="#ffffff">no</text>
</defs>
<g fill="url(#bgrad)" transform="scale(1 0.5)"><circle r="256" cx="150" cy="200"/></g>
<g transform="translate(190 20)">
  <text style="font-family:sans-serif;font-size:12px;" fill="#ffffff">Image Formats</text>
</g>
<path stroke="#ffffff" stroke-width="1" fill="none" d="m 50 68 0 82"/>
<path stroke="#ffffff" stroke-width="1" fill="none" d="m 120 75 0 82" stroke-dasharray="4,4"/>
<path stroke="#ffffff" stroke-width="1" fill="none" d="m 190 68 0 82"/>
<path stroke="#ffffff" stroke-width="1" fill="none" d="m 260 96 0 82"/>
<g transform="translate(123 120)">
  <text transform="rotate(90)" style="font-family:sans-serif;font-size:8px;" text-anchor="middle" fill="#ffffff">sure?</text>
</g>
<g transform="translate(50 165)">
  <use xlink:href="#format" x="0" y="0"/>
  <text style="font-family:sans-serif;font-size:10px;" text-anchor="middle">
    <tspan fill="yellow" alignment-baseline="middle" x="0" y="0">SVG</tspan>
  </text>
</g>
<g transform="translate(120 165)">
  <use xlink:href="#format" x="0" y="0"/>
  <text style="font-family:sans-serif;font-size:10px;" text-anchor="middle" fill="#ffffff">
    <tspan fill="yellow" alignment-baseline="middle" x="1" y="-5">PNG</tspan>
    <tspan style="font-size:8px;" alignment-baseline="middle" x="0" y="7">RGB</tspan>
  </text>
</g>
<g transform="translate(190 165)">
  <use xlink:href="#format" x="0" y="0"/>
  <text style="font-family:sans-serif;font-size:10px;" text-anchor="middle" fill="#ffffff">
    <tspan fill="yellow" alignment-baseline="middle" x="1" y="-5">PNG</tspan>
    <tspan style="font-size:8px;" alignment-baseline="middle" x="0" y="6">indexed</tspan>
  </text>
</g>
<g transform="translate(260 165)">
  <use xlink:href="#format" x="0" y="0"/>
  <text style="font-family:sans-serif;font-size:10px;" text-anchor="middle" fill="#ffffff">
    <tspan fill="yellow" alignment-baseline="middle" x="0" y="-4">JPEG</tspan>
    <tspan style="font-size:8px;" alignment-baseline="middle" x="0" y="7">~75%</tspan>
  </text>
</g>
<g transform="translate(50 40)">
  <path stroke="#ffffff" stroke-width="1" fill="none" d="m 28 0 42 0"/>
  <use xlink:href="#no" x="44" y="-4"/>
  <use xlink:href="#question" x="0" y="0"/>
  <text style="font-family:sans-serif;font-size:8px;" text-anchor="middle" fill="#ffffff">
    <tspan alignment-baseline="middle" x="0" y="-6">can write</tspan>
    <tspan alignment-baseline="middle" x="0" y="6">as SVG?</tspan>
  </text>
</g>
<g transform="translate(120 68)">
  <path stroke="#ffffff" stroke-width="1" fill="none" d="m 28 0 42 0"/>
  <use xlink:href="#no" x="44" y="-4"/>
  <use xlink:href="#question" x="0" y="0"/>
  <text style="font-family:sans-serif;font-size:8px;" text-anchor="middle" fill="#ffffff">
    <tspan alignment-baseline="middle" x="0" y="-12">need</tspan>
    <tspan alignment-baseline="middle" x="0" y="-2">to look</tspan>
    <tspan alignment-baseline="middle" x="0" y="8">perfect?</tspan>
  </text>
</g>
<g transform="translate(190 96)">
  <path stroke="#ffffff" stroke-width="1" fill="none" d="m 28 0 42 0"/>
  <use xlink:href="#no" x="44" y="-4"/>
  <use xlink:href="#question" x="0" y="0"/>
  <text style="font-family:sans-serif;font-size:8px;" text-anchor="middle" fill="#ffffff">
    <tspan alignment-baseline="middle" x="0" y="-6">limited</tspan>
    <tspan alignment-baseline="middle" x="0" y="6">colors?</tspan>
  </text>
</g>
</svg>
