<?xml version="1.0" encoding="UTF-8" standalone="no"?>
<svg width="800px" height="540px" viewBox="0 0 800 540" version="1.1" xmlns:xlink="http://www.w3.org/1999/xlink" xmlns="http://www.w3.org/2000/svg" xmlns:svg="http://www.w3.org/2000/svg">
<defs>
<radialGradient id="bgrad" r="100%" cx="34%" cy="40%">
<stop offset="0%" stop-color="#687782" stop-opacity="1"/>
<stop offset="50%" stop-color="#1e2d38" stop-opacity="1"/>
<stop offset="100%" stop-color="#1e2d38" stop-opacity="1"/>
</radialGradient>
<g id="cart" transform="scale(0.6 0.6) translate(-42 -42)">
<circle r="70" cx="45" cy="45" stroke="#ffffff" stroke-width="8" fill="rgba(0,0,0,0)"/>
<path d="M31 31 20 31 20 24 31 24 31 31ZM46 24 46 31 35 31 35 24 46 24ZM61 24 61 31 50 31 50 24 61 24ZM76 24 76 31 65 31 65 24 76 24ZM76 42 65 42 65 35 76 35 76 42ZM76 50.5 65 51.5 65 46 76 46 76 50.5ZM31 46 31 54.5 20 55.5 20 46 31 46ZM31 42 20 42 20 35 31 35 31 42ZM46 42 35 42 35 35 46 35 46 42ZM50 42 50 35 61 35 61 42 50 42ZM46 53.2 35 54.2 35 46 46 46 46 53.2ZM50 46 61 46 61 51.8 50 52.8 50 46ZM82 56 82 18 20 18 20 17C20 12 16 8 11 8 9.3 8 8 9.3 8 11 8 12.7 9.3 14 11 14 12.7 14 14 15.3 14 17L14 67C14 72 18 76 23 76L26 76 70 76 79 76C80.7 76 82 74.7 82 73 82 71.3 80.7 70 79 70L23 70C21.3 70 20 68.7 20 67L20 61.5 82 56Z" fill="#ffffff"/>
<path d="M32 82C32 85.3137 29.3137 88 26 88 22.6863 88 20 85.3137 20 82 20 78.6863 22.6863 76 26 76 29.3137 76 32 78.6863 32 82Z" fill="#ffffff"/>
<path d="M76 82C76 85.3137 73.3137 88 70 88 66.6863 88 64 85.3137 64 82 64 78.6863 66.6863 76 70 76 73.3137 76 76 78.6863 76 82Z" fill="#ffffff"/>
</g>
<g id="bag" transform="scale(0.6 0.6) translate(-42 -42)">
<circle r="70" cx="45" cy="45" stroke="#ffffff" stroke-width="8" fill="rgba(0,0,0,0)"/>
<g transform="translate(0 -5)">
<path d="M68.3 83.2 71 40.6 73.8 77.7 68.3 83.2ZM62.1 86 22.1 86 25.6 30 30 30 30 38C30 39.1 30.9 40 32 40 33.1 40 34 39.1 34 38L34 30 54 30 54 38C54 39.1 54.9 40 56 40 57.1 40 58 39.1 58 38L58 30 65.6 30 62.1 86ZM34 20C34 15.4 37.1 11.6 41.3 10.4 39.8 12.6 39 15.2 39 18L39 24 34 24 34 20ZM46.6 10.3C50.9 11.4 54 15.3 54 20L54 24 43 24 43 18C43 14.9 44.4 12.2 46.6 10.3ZM53 8C58.5 8 63 12.5 63 18L63 24 58 24 58 20C58 15 55.4 10.6 51.4 8.1 51.9 8.1 52.5 8 53 8ZM76 27.8C75.9 25.7 74.1 24 72 24L67.7 24C69.7 24 71.4 25.5 71.7 27.4 71.4 25.5 69.8 24 67.7 24L67 24 67 18C67 10.3 60.7 4 53 4 50.3 4 47.8 4.8 45.7 6.1 45.1 6 44.6 6 44 6 36.3 6 30 12.3 30 20L30 24 23.8 24C21.7 24 19.9 25.6 19.8 27.8L16.1 87.8C16 90.1 17.8 92 20.1 92L64.1 92 66.4 92C67.5 92 68.6 91.5 69.3 90.7L78.8 81.3C79.6 80.5 80.1 79.3 80 78.2L76 27.8Z" fill="#ffffff"/>
</g>
</g>
<g id="arrow" transform="rotate(-116) translate(-160 -60)">
<path style="filter: drop-shadow(0px 0px 4px rgb(255 255 255))" d="M0 44 54 44 38 2 40 0 158 58 Q 160 60 158 62 L 40 120 38 118 54 72 0 72Z" fill="#ffffff"/>
</g>
</defs>
<g fill="url(#bgrad)" transform="scale(1 0.5)">
<circle r="700" cx="400" cy="575"/>
</g>
<use xlink:href="#cart" x="330" y="220" transform="scale(1.2 1.2)"/>
<use xlink:href="#cart" x="60" y="300"/>
<use xlink:href="#cart" x="270" y="380"/>
<use xlink:href="#cart" x="690" y="170"/>
<use xlink:href="#cart" x="730" y="370"/>
<use xlink:href="#bag" x="200" y="180"/>
<use xlink:href="#bag" x="510" y="140"/>
<use xlink:href="#bag" x="570" y="300"/>
<use xlink:href="#arrow" x="400" y="300"/>
<path stroke="#ffffff" stroke-width="4" d="m 96,277 77,-62"/>
<path stroke="#ffffff" stroke-width="4" d="m 98,326 130,50"/>
<path stroke="#ffffff" stroke-width="4" d="m 302,354 62,-48"/>
<path stroke="#ffffff" stroke-width="4" d="m 244,194 106,52"/>
<path stroke="#ffffff" stroke-width="4" d="M 435,231 486,176"/>
<path stroke="#ffffff" stroke-width="4" d="m 448,281 80,15"/>
<path stroke="#ffffff" stroke-width="4" d="m 556,146 93,17"/>
<path stroke="#ffffff" stroke-width="4" d="m 715,205 15,125"/>
<path stroke="#ffffff" stroke-width="4" d="M 690,362 607,325"/>
<path stroke="#ffffff" stroke-width="4" d="m 588,262 70,-62"/>
<text style="font-family:sans-serif;font-size:42px;" fill="#ffffff" x="20" y="60">Catena-X Marketplaces</text>
</svg>
