<?xml version="1.0" encoding="UTF-8" standalone="no"?>
<svg width="800px" height="540px" viewBox="0 0 800 540" version="1.1" xmlns:xlink="http://www.w3.org/1999/xlink" xmlns="http://www.w3.org/2000/svg" xmlns:svg="http://www.w3.org/2000/svg">
<defs>
<radialGradient id="bgrad" r="100%" cx="34%" cy="40%">
<stop offset="0%" stop-color="#687782" stop-opacity="1"/>
<stop offset="50%" stop-color="#1e2d38" stop-opacity="1"/>
<stop offset="100%" stop-color="#1e2d38" stop-opacity="1"/>
</radialGradient>
<path id="box" d="M288 0 a8 8, 0, 0, 1, 8,8 l0 28 a8 8, 0, 0, 1, -8,8 l-280 0 a8 8, 0, 0, 1, -8,-8 l0 -28 a8 8, 0, 0, 1, 8,-8 Z" fill="white" fill-opacity="1"/>
<marker id="arrow" markerWidth="10" markerHeight="7" 
refX="0" refY="3.5" orient="auto">
<polygon fill="#aaaaaa" points="0 0, 7 3.5, 0 7" />
</marker>
<path id="conn" stroke="#aaaaaa" stroke-width="2" fill-opacity="0" marker-end="url(#arrow)"
d="m 0,0 0,16 20,0 0,16"
/>
</defs>
<g fill="url(#bgrad)" transform="scale(1 0.5)">
<circle r="700" cx="400" cy="575"/>
</g>

<use xlink:href="#conn" x="180" y="124"/>
<use xlink:href="#conn" x="560" y="169"/>
<use xlink:href="#conn" x="200" y="214"/>
<use xlink:href="#conn" x="580" y="259"/>

<path d="m220,304 0,20 178,0 0,-227 164,0 0,14" stroke="#aaaaaa" stroke-width="2" fill-opacity="0" marker-end="url(#arrow)"/>

<path d="m40,380 720,0 -360,50 Z" fill="#788088" />

<g transform="translate(40 80)">
<use xlink:href="#box"/>
<text style="font-family:sans-serif;font-size:23px;text-anchor:middle;" fill="black" x="148" y="30">Initiate Subscription</text>
</g>
<g transform="translate(420 125)">
<use xlink:href="#box"/>
<text style="font-family:sans-serif;font-size:23px;text-anchor:middle;" fill="black" x="148" y="30">Instance Registered</text>
</g>
<g transform="translate(60 170)">
<use xlink:href="#box"/>
<text style="font-family:sans-serif;font-size:23px;text-anchor:middle;" fill="black" x="148" y="30">Instance Deployed</text>
</g>
<g transform="translate(440 215)">
<use xlink:href="#box"/>
<text style="font-family:sans-serif;font-size:23px;text-anchor:middle;" fill="black" x="148" y="30">Technical User Creation</text>
</g>
<g transform="translate(80 260)">
<use xlink:href="#box"/>
<text style="font-family:sans-serif;font-size:23px;text-anchor:middle;" fill="black" x="148" y="30">Subscription Activation</text>
</g>
<g transform="translate(460 305)">
<use xlink:href="#box"/>
<text style="font-family:sans-serif;font-size:23px;text-anchor:middle;" fill="black" x="148" y="30">Customer Notification</text>
</g>
<g transform="translate(260 460)">
<use xlink:href="#box"/>
<text style="font-family:sans-serif;font-size:23px;text-anchor:middle;" fill="black" x="148" y="30">Use</text>
</g>

</svg>
