<svg width="4400" height="1801" xmlns="http://www.w3.org/2000/svg" xmlns:xlink="http://www.w3.org/1999/xlink" xml:space="preserve" overflow="hidden"><g clip-path="url(#clip0)" transform="matrix(1 0 0 1 0 -412)"><path d="M0 460.407C-8.75279e-15 434.225 21.2248 413 47.4068 413L4352.59 413C4378.78 413 4400 434.225 4400 460.407L4400 2162.59C4400 2188.78 4378.78 2210 4352.59 2210L47.4068 2210C21.2248 2210 0 2188.78 0 2162.59Z" fill="#035970" fill-rule="evenodd" fill-opacity="1"/><text fill="#FFFFFF" fill-opacity="1" font-family="BMWGroupTN Condensed,BMWGroupTN Condensed_MSFontService,sans-serif" font-style="normal" font-variant="normal" font-weight="700" font-stretch="normal" font-size="55" text-anchor="start" direction="ltr" writing-mode="lr-tb" unicode-bidi="normal" text-decoration="none" transform="matrix(1 0 0 1 338.69 645)">Beschreibt den Zustand eines Bauteils bzw. Fahrzeugs nach Verbau im jeweiligen Werk. Jedes Einzelteil oder jede Charge wird d</text><text fill="#FFFFFF" fill-opacity="1" font-family="BMWGroupTN Condensed,BMWGroupTN Condensed_MSFontService,sans-serif" font-style="normal" font-variant="normal" font-weight="700" font-stretch="normal" font-size="55" text-anchor="start" direction="ltr" writing-mode="lr-tb" unicode-bidi="normal" text-decoration="none" transform="matrix(1 0 0 1 3190.1 645)">abe</text><text fill="#FFFFFF" fill-opacity="1" font-family="BMWGroupTN Condensed,BMWGroupTN Condensed_MSFontService,sans-serif" font-style="normal" font-variant="normal" font-weight="700" font-stretch="normal" font-size="55" text-anchor="start" direction="ltr" writing-mode="lr-tb" unicode-bidi="normal" text-decoration="none" transform="matrix(1 0 0 1 3273.17 645)">i als Digitaler Zwilling abgebildet.</text><text fill="#FFFFFF" fill-opacity="1" font-family="Symbol,Symbol_MSFontService,sans-serif" font-style="normal" font-variant="normal" font-weight="400" font-stretch="normal" font-size="37" text-anchor="start" direction="ltr" writing-mode="lr-tb" unicode-bidi="normal" text-decoration="none" transform="matrix(1 0 0 1 503.69 767)"></text><text fill="#FFFFFF" fill-opacity="1" font-family="BMWGroupTN Condensed,BMWGroupTN Condensed_MSFontService,sans-serif" font-style="normal" font-variant="normal" font-weight="400" font-stretch="normal" font-size="50" text-anchor="start" direction="ltr" writing-mode="lr-tb" unicode-bidi="normal" text-decoration="none" transform="matrix(1 0 0 1 1328.69 767)">Bildet </text><text fill="#FFFFFF" fill-opacity="1" font-family="BMWGroupTN Condensed,BMWGroupTN Condensed_MSFontService,sans-serif" font-style="normal" font-variant="normal" font-weight="400" font-stretch="normal" font-size="50" text-anchor="start" direction="ltr" writing-mode="lr-tb" unicode-bidi="normal" text-decoration="none" transform="matrix(1 0 0 1 1454.16 767)">Stammdaten eines Bauteils mit eigener Seriennummer nach Verbau ab. </text><text fill="#FFFFFF" fill-opacity="1" font-family="BMWGroupTN Condensed,BMWGroupTN Condensed_MSFontService,sans-serif" font-style="normal" font-variant="normal" font-weight="400" font-stretch="normal" font-size="50" text-anchor="start" direction="ltr" writing-mode="lr-tb" unicode-bidi="normal" text-decoration="none" transform="matrix(1 0 0 1 1328.69 828)">Relevant für Hersteller von serialisierten Einzelteilen oder Fahrzeughersteller.</text><text fill="#FFFFFF" fill-opacity="1" font-family="Symbol,Symbol_MSFontService,sans-serif" font-style="normal" font-variant="normal" font-weight="400" font-stretch="normal" font-size="50" text-anchor="start" direction="ltr" writing-mode="lr-tb" unicode-bidi="normal" text-decoration="none" transform="matrix(1 0 0 1 503.69 949)"></text><text fill="#FFFFFF" fill-opacity="1" font-family="BMWGroupTN Condensed,BMWGroupTN Condensed_MSFontService,sans-serif" font-style="normal" font-variant="normal" font-weight="400" font-stretch="normal" font-size="50" text-anchor="start" direction="ltr" writing-mode="lr-tb" unicode-bidi="normal" text-decoration="none" transform="matrix(1 0 0 1 1328.69 949)">Bildet Stammdaten einer Charge nach Verbau ab. Relevant für Hersteller von Bauteilen mit großen Losgrößen, die zu gleichen </text><text fill="#FFFFFF" fill-opacity="1" font-family="BMWGroupTN Condensed,BMWGroupTN Condensed_MSFontService,sans-serif" font-style="normal" font-variant="normal" font-weight="400" font-stretch="normal" font-size="50" text-anchor="start" direction="ltr" writing-mode="lr-tb" unicode-bidi="normal" text-decoration="none" transform="matrix(1 0 0 1 1328.69 1009)">Herstellungsbedingungen produziert und in einer Chargennummer gebündelt werden.</text><text fill="#FFFFFF" fill-opacity="1" font-family="Symbol,Symbol_MSFontService,sans-serif" font-style="normal" font-variant="normal" font-weight="400" font-stretch="normal" font-size="50" text-anchor="start" direction="ltr" writing-mode="lr-tb" unicode-bidi="normal" text-decoration="none" transform="matrix(1 0 0 1 503.69 1130)"></text><text fill="#FFFFFF" fill-opacity="1" font-family="BMWGroupTN Condensed,BMWGroupTN Condensed_MSFontService,sans-serif" font-style="normal" font-variant="normal" font-weight="400" font-stretch="normal" font-size="50" text-anchor="start" direction="ltr" writing-mode="lr-tb" unicode-bidi="normal" text-decoration="none" transform="matrix(1 0 0 1 1328.69 1130)">Bildet die Verbaubeziehungen zwischen den Bauteilen ab. </text><text fill="#FFFFFF" fill-opacity="1" font-family="BMWGroupTN Condensed,BMWGroupTN Condensed_MSFontService,sans-serif" font-style="normal" font-variant="normal" font-weight="400" font-stretch="normal" font-size="50" text-anchor="start" direction="ltr" writing-mode="lr-tb" unicode-bidi="normal" text-decoration="none" transform="matrix(1 0 0 1 1328.69 1191)">Beispielsweise welche Charge (Zahnrad, Rohstoff) in welchem Serialisierten Teil (Getriebe) in welchem Fahrzeug verbaut ist. </text><text fill="#FFFFFF" fill-opacity="1" font-family="BMWGroupTN Condensed,BMWGroupTN Condensed_MSFontService,sans-serif" font-style="normal" font-variant="normal" font-weight="700" font-stretch="normal" font-size="55" text-anchor="start" direction="ltr" writing-mode="lr-tb" unicode-bidi="normal" text-decoration="none" transform="matrix(1 0 0 1 338.69 1481)">Beschreibt den Zustand eines Bauteils bzw. Fahrzeugs wenn die Lieferbeziehung zwischen Lieferant und Kunde vertraglich defini</text><text fill="#FFFFFF" fill-opacity="1" font-family="BMWGroupTN Condensed,BMWGroupTN Condensed_MSFontService,sans-serif" font-style="normal" font-variant="normal" font-weight="700" font-stretch="normal" font-size="55" text-anchor="start" direction="ltr" writing-mode="lr-tb" unicode-bidi="normal" text-decoration="none" transform="matrix(1 0 0 1 3211.87 1481)">ert</text><text fill="#FFFFFF" fill-opacity="1" font-family="BMWGroupTN Condensed,BMWGroupTN Condensed_MSFontService,sans-serif" font-style="normal" font-variant="normal" font-weight="700" font-stretch="normal" font-size="55" text-anchor="start" direction="ltr" writing-mode="lr-tb" unicode-bidi="normal" text-decoration="none" transform="matrix(1 0 0 1 3287.49 1481)">ist.</text><text fill="#FFFFFF" fill-opacity="1" font-family="Symbol,Symbol_MSFontService,sans-serif" font-style="normal" font-variant="normal" font-weight="400" font-stretch="normal" font-size="50" text-anchor="start" direction="ltr" writing-mode="lr-tb" unicode-bidi="normal" text-decoration="none" transform="matrix(1 0 0 1 503.69 1609)"></text><text fill="#FFFFFF" fill-opacity="1" font-family="BMWGroupTN Condensed,BMWGroupTN Condensed_MSFontService,sans-serif" font-style="normal" font-variant="normal" font-weight="400" font-stretch="normal" font-size="50" text-anchor="start" direction="ltr" writing-mode="lr-tb" unicode-bidi="normal" text-decoration="none" transform="matrix(1 0 0 1 1328.69 1609)">Bildet Stammdaten eines Bauteils im “as planned”-Lebenszyklus ab.</text><text fill="#FFFFFF" fill-opacity="1" font-family="Symbol,Symbol_MSFontService,sans-serif" font-style="normal" font-variant="normal" font-weight="400" font-stretch="normal" font-size="50" text-anchor="start" direction="ltr" writing-mode="lr-tb" unicode-bidi="normal" text-decoration="none" transform="matrix(1 0 0 1 503.69 1730)"></text><text fill="#FFFFFF" fill-opacity="1" font-family="BMWGroupTN Condensed,BMWGroupTN Condensed_MSFontService,sans-serif" font-style="normal" font-variant="normal" font-weight="400" font-stretch="normal" font-size="50" text-anchor="start" direction="ltr" writing-mode="lr-tb" unicode-bidi="normal" text-decoration="none" transform="matrix(1 0 0 1 1328.69 1730)">Bildet die </text><text fill="#FFFFFF" fill-opacity="1" font-family="BMWGroupTN Condensed,BMWGroupTN Condensed_MSFontService,sans-serif" font-style="normal" font-variant="normal" font-weight="400" font-stretch="normal" font-size="50" text-anchor="start" direction="ltr" writing-mode="lr-tb" unicode-bidi="normal" text-decoration="none" transform="matrix(1 0 0 1 1523.48 1730)">erste Ebene einer Baugruppe bzw. eines Zusammenbaus ohne weitere Unterbaugruppen aus tieferer Ebene dar. </text><text fill="#FFFFFF" fill-opacity="1" font-family="BMWGroupTN Condensed,BMWGroupTN Condensed_MSFontService,sans-serif" font-style="normal" font-variant="normal" font-weight="400" font-stretch="normal" font-size="50" text-anchor="start" direction="ltr" writing-mode="lr-tb" unicode-bidi="normal" text-decoration="none" transform="matrix(1 0 0 1 1328.69 1790)">Im „as planned“-Lebenszyklus ist die gesamte Varianz eines möglichen Fahrzeugs abgedeckt (wird auch als 120% Stückliste bezeichnet).</text><text fill="#FFFFFF" fill-opacity="1" font-family="Symbol,Symbol_MSFontService,sans-serif" font-style="normal" font-variant="normal" font-weight="400" font-stretch="normal" font-size="50" text-anchor="start" direction="ltr" writing-mode="lr-tb" unicode-bidi="normal" text-decoration="none" transform="matrix(1 0 0 1 503.69 1911)"></text><text fill="#FFFFFF" fill-opacity="1" font-family="BMWGroupTN Condensed,BMWGroupTN Condensed_MSFontService,sans-serif" font-style="normal" font-variant="normal" font-weight="400" font-stretch="normal" font-size="50" text-anchor="start" direction="ltr" writing-mode="lr-tb" unicode-bidi="normal" text-decoration="none" transform="matrix(1 0 0 1 1328.69 1911)">Stellt standortbezogene Informationen für  ein geplantes Bauteil bereit. Ein Standort ist in diesem Kontext ein abgegrenztes geografisches Gebiet, </text><text fill="#FFFFFF" fill-opacity="1" font-family="BMWGroupTN Condensed,BMWGroupTN Condensed_MSFontService,sans-serif" font-style="normal" font-variant="normal" font-weight="400" font-stretch="normal" font-size="50" text-anchor="start" direction="ltr" writing-mode="lr-tb" unicode-bidi="normal" text-decoration="none" transform="matrix(1 0 0 1 1328.69 1972)">in dem ein Unternehmen geschäftlich tätig ist.</text><text fill="#FFFFFF" fill-opacity="1" font-family="Symbol,Symbol_MSFontService,sans-serif" font-style="normal" font-variant="normal" font-weight="400" font-stretch="normal" font-size="50" text-anchor="start" direction="ltr" writing-mode="lr-tb" unicode-bidi="normal" text-decoration="none" transform="matrix(1 0 0 1 503.69 2093)"></text><text fill="#FFFFFF" fill-opacity="1" font-family="BMWGroupTN Condensed,BMWGroupTN Condensed_MSFontService,sans-serif" font-style="normal" font-variant="normal" font-weight="400" font-stretch="normal" font-size="50" text-anchor="start" direction="ltr" writing-mode="lr-tb" unicode-bidi="normal" text-decoration="none" transform="matrix(1 0 0 1 1328.69 2093)">Stellt die Verbaubeziehung eines Bauteils zu seinen übergeordneten Teilen während des “as planned”-Lebenszyklus her.</text><path d="M443 731.167C443 719.477 452.477 710 464.167 710L1257.83 710C1269.52 710 1279 719.477 1279 731.167L1279 815.833C1279 827.523 1269.52 837 1257.83 837L464.167 837C452.477 837 443 827.523 443 815.833Z" fill="#85ACB9" fill-rule="evenodd" fill-opacity="1"/><text fill="#FFFFFF" fill-opacity="1" font-family="BMWGroupTN Condensed,BMWGroupTN Condensed_MSFontService,sans-serif" font-style="normal" font-variant="normal" font-weight="400" font-stretch="normal" font-size="55" text-anchor="start" direction="ltr" writing-mode="lr-tb" unicode-bidi="normal" text-decoration="none" transform="matrix(1 0 0 1 640.804 793)">SerialPartTypization</text><path d="M443 915.167C443 903.477 452.477 894 464.167 894L1257.83 894C1269.52 894 1279 903.477 1279 915.167L1279 999.834C1279 1011.52 1269.52 1021 1257.83 1021L464.167 1021C452.477 1021 443 1011.52 443 999.834Z" fill="#85ACB9" fill-rule="evenodd" fill-opacity="1"/><text fill="#FFFFFF" fill-opacity="1" font-family="BMWGroupTN Condensed,BMWGroupTN Condensed_MSFontService,sans-serif" font-style="normal" font-variant="normal" font-weight="400" font-stretch="normal" font-size="55" text-anchor="start" direction="ltr" writing-mode="lr-tb" unicode-bidi="normal" text-decoration="none" transform="matrix(1 0 0 1 798.07 976)">Batch</text><path d="M443 1098.17C443 1086.48 452.477 1077 464.167 1077L1257.83 1077C1269.52 1077 1279 1086.48 1279 1098.17L1279 1182.83C1279 1194.52 1269.52 1204 1257.83 1204L464.167 1204C452.477 1204 443 1194.52 443 1182.83Z" fill="#85ACB9" fill-rule="evenodd" fill-opacity="1"/><text fill="#FFFFFF" fill-opacity="1" font-family="BMWGroupTN Condensed,BMWGroupTN Condensed_MSFontService,sans-serif" font-style="normal" font-variant="normal" font-weight="400" font-stretch="normal" font-size="55" text-anchor="start" direction="ltr" writing-mode="lr-tb" unicode-bidi="normal" text-decoration="none" transform="matrix(1 0 0 1 576.924 1160)">AssemblyPartRelationship</text><path d="M443 1544.17C443 1532.48 452.477 1523 464.167 1523L1257.83 1523C1269.52 1523 1279 1532.48 1279 1544.17L1279 1628.83C1279 1640.52 1269.52 1650 1257.83 1650L464.167 1650C452.477 1650 443 1640.52 443 1628.83Z" fill="#85ACB9" fill-rule="evenodd" fill-opacity="1"/><text fill="#FFFFFF" fill-opacity="1" font-family="BMWGroupTN Condensed,BMWGroupTN Condensed_MSFontService,sans-serif" font-style="normal" font-variant="normal" font-weight="400" font-stretch="normal" font-size="55" text-anchor="start" direction="ltr" writing-mode="lr-tb" unicode-bidi="normal" text-decoration="none" transform="matrix(1 0 0 1 699.815 1606)">PartAsPlanned</text><path d="M443 1709.17C443 1697.48 452.477 1688 464.167 1688L1257.83 1688C1269.52 1688 1279 1697.48 1279 1709.17L1279 1793.83C1279 1805.52 1269.52 1815 1257.83 1815L464.167 1815C452.477 1815 443 1805.52 443 1793.83Z" fill="#85ACB9" fill-rule="evenodd" fill-opacity="1"/><text fill="#FFFFFF" fill-opacity="1" font-family="BMWGroupTN Condensed,BMWGroupTN Condensed_MSFontService,sans-serif" font-style="normal" font-variant="normal" font-weight="400" font-stretch="normal" font-size="55" text-anchor="start" direction="ltr" writing-mode="lr-tb" unicode-bidi="normal" text-decoration="none" transform="matrix(1 0 0 1 571.768 1770)">SingleLevelBoMAsPlanned</text><path d="M443 1874C443 1862.4 452.402 1853 464.001 1853L1258 1853C1269.6 1853 1279 1862.4 1279 1874L1279 1958C1279 1969.6 1269.6 1979 1258 1979L464.001 1979C452.402 1979 443 1969.6 443 1958Z" fill="#85ACB9" fill-rule="evenodd" fill-opacity="1"/><text fill="#FFFFFF" fill-opacity="1" font-family="BMWGroupTN Condensed,BMWGroupTN Condensed_MSFontService,sans-serif" font-style="normal" font-variant="normal" font-weight="400" font-stretch="normal" font-size="55" text-anchor="start" direction="ltr" writing-mode="lr-tb" unicode-bidi="normal" text-decoration="none" transform="matrix(1 0 0 1 533.955 1935)">PartSiteInformationAsPlanned</text><path d="M443 2038.17C443 2026.48 452.477 2017 464.167 2017L1257.83 2017C1269.52 2017 1279 2026.48 1279 2038.17L1279 2122.83C1279 2134.52 1269.52 2144 1257.83 2144L464.167 2144C452.477 2144 443 2134.52 443 2122.83Z" fill="#85ACB9" fill-rule="evenodd" fill-opacity="1"/><text fill="#FFFFFF" fill-opacity="1" font-family="BMWGroupTN Condensed,BMWGroupTN Condensed_MSFontService,sans-serif" font-style="normal" font-variant="normal" font-weight="400" font-stretch="normal" font-size="55" text-anchor="start" direction="ltr" writing-mode="lr-tb" unicode-bidi="normal" text-decoration="none" transform="matrix(1 0 0 1 553.435 2100)">S</text><text fill="#FFFFFF" fill-opacity="1" font-family="BMWGroupTN Condensed,BMWGroupTN Condensed_MSFontService,sans-serif" font-style="normal" font-variant="normal" font-weight="400" font-stretch="normal" font-size="55" text-anchor="start" direction="ltr" writing-mode="lr-tb" unicode-bidi="normal" text-decoration="none" transform="matrix(1 0 0 1 583.226 2100)">ingleLevelUsageAsPlanned</text><rect x="176.5" y="523.5" width="4104" height="727" stroke="#FFFFFF" stroke-width="6.875" stroke-linecap="butt" stroke-linejoin="miter" stroke-miterlimit="8" stroke-opacity="1" fill="none"/><rect x="260.5" y="448.5" width="835" height="107" stroke="#FFFFFF" stroke-width="6.875" stroke-linecap="butt" stroke-linejoin="miter" stroke-miterlimit="8" stroke-opacity="1" fill="#035970" fill-opacity="1"/><text fill="#FFFFFF" fill-opacity="1" font-family="BMWGroupTN Condensed,BMWGroupTN Condensed_MSFontService,sans-serif" font-style="normal" font-variant="normal" font-weight="700" font-stretch="normal" font-size="55" text-anchor="start" direction="ltr" writing-mode="lr-tb" unicode-bidi="normal" text-decoration="none" transform="matrix(1 0 0 1 423.81 520)">Lebenszyklus “as built”</text><g clip-path="url(#clip1)"><g clip-path="url(#clip2)"><g clip-path="url(#clip3)"><path d="M15.9843 80.2123C15.3062 80.8905 14.4343 81.0842 13.5625 80.6967 12.6906 80.3092 12.2062 79.5342 12.2062 78.6623 12.2062 77.7905 12.7875 76.9186 13.5625 76.628 14.4343 76.2405 15.3062 76.4342 15.9843 77.1123 16.8562 77.8873 16.8562 79.3405 15.9843 80.2123ZM84.3779 16.3718 76.5311 24.2187 70.3311 22.5718 68.7811 16.4687 76.628 8.62186C71.978 6.87811 66.7467 7.94373 63.0655 11.2375 59.3843 14.6281 57.9311 19.6656 59.1905 24.5093L9.78436 73.9155C8.04061 75.5623 7.36248 78.0811 7.94373 80.4061 8.52498 82.7311 10.3656 84.5717 12.6906 85.1529 15.0156 85.7342 17.4375 85.0561 19.1812 83.3123L68.5874 33.9062C73.4311 35.1656 78.4686 33.7124 81.8592 30.0312 85.1529 26.3499 86.2186 21.0218 84.3779 16.3718Z" fill="#FFFFFF" fill-rule="nonzero" fill-opacity="1" transform="matrix(1.01075 0 0 1 287 454)"/><path d="M83.9904 73.9155 58.9968 48.9218 48.9218 58.9968 73.1405 83.2155 74.0123 84.0873 74.1092 83.9904C76.9186 86.0248 80.7936 85.6373 83.2155 83.2155 85.6373 80.6967 85.9279 76.8217 83.9904 73.9155Z" fill="#FFFFFF" fill-rule="nonzero" fill-opacity="1" transform="matrix(1.01075 0 0 1 287 454)"/><path d="M21.8937 19.1812 21.9906 19.0843 19.4718 14.4343 11.1406 7.74998 7.74998 11.1406 14.4343 19.4718 19.0843 21.9906 19.1812 21.8937 37.6843 40.3968 40.3968 37.6843Z" fill="#FFFFFF" fill-rule="nonzero" fill-opacity="1" transform="matrix(1.01075 0 0 1 287 454)"/></g></g></g><rect x="176.5" y="1348.5" width="4104" height="832" stroke="#FFFFFF" stroke-width="6.875" stroke-linecap="butt" stroke-linejoin="miter" stroke-miterlimit="8" stroke-opacity="1" fill="none"/><rect x="260.5" y="1278.5" width="835" height="107" stroke="#FFFFFF" stroke-width="6.875" stroke-linecap="butt" stroke-linejoin="miter" stroke-miterlimit="8" stroke-opacity="1" fill="#035970" fill-opacity="1"/><text fill="#FFFFFF" fill-opacity="1" font-family="BMWGroupTN Condensed,BMWGroupTN Condensed_MSFontService,sans-serif" font-style="normal" font-variant="normal" font-weight="700" font-stretch="normal" font-size="55" text-anchor="start" direction="ltr" writing-mode="lr-tb" unicode-bidi="normal" text-decoration="none" transform="matrix(1 0 0 1 423.81 1351)">Lebenszyklus “as planned”</text><g clip-path="url(#clip4)"><g clip-path="url(#clip5)"><g clip-path="url(#clip6)"><path d="M22.5208 19.5833 33.2916 19.5833 33.2916 25.4583 60.7082 25.4583 60.7082 19.5833 71.479 19.5833 71.479 80.2915 22.5208 80.2915 22.5208 19.5833ZM47.0978 11.75C48.6645 11.75 49.9374 13.1208 49.9374 14.6875 49.9374 16.3521 48.6645 17.625 46.9999 17.625 45.3353 17.625 44.0624 16.3521 44.0624 14.6875 44.0624 13.0229 45.3353 11.75 47.0978 11.75ZM16.6458 17.625 16.6458 82.2499C16.6458 84.404 18.4083 86.1665 20.5625 86.1665L73.4374 86.1665C75.5915 86.1665 77.354 84.404 77.354 82.2499L77.354 17.625C77.354 15.4708 75.5915 13.7083 73.4374 13.7083L56.7916 13.7083 56.7916 11.75C56.7916 9.59582 55.0291 7.83332 52.8749 7.83332L41.1249 7.83332C38.9708 7.83332 37.2083 9.59582 37.2083 11.75L37.2083 13.7083 20.5625 13.7083C18.4083 13.7083 16.6458 15.4708 16.6458 17.625Z" fill="#FFFFFF" fill-rule="nonzero" fill-opacity="1" transform="matrix(1 0 0 1 287 1284)"/><path d="M28.3958 33.2916 45.0416 33.2916 45.0416 37.2083 28.3958 37.2083Z" fill="#FFFFFF" fill-rule="nonzero" fill-opacity="1" transform="matrix(1 0 0 1 287 1284)"/><path d="M28.3958 45.0416 45.0416 45.0416 45.0416 48.9582 28.3958 48.9582Z" fill="#FFFFFF" fill-rule="nonzero" fill-opacity="1" transform="matrix(1 0 0 1 287 1284)"/><path d="M28.3958 56.7916 45.0416 56.7916 45.0416 60.7082 28.3958 60.7082Z" fill="#FFFFFF" fill-rule="nonzero" fill-opacity="1" transform="matrix(1 0 0 1 287 1284)"/><path d="M28.3958 68.5415 45.0416 68.5415 45.0416 72.4582 28.3958 72.4582Z" fill="#FFFFFF" fill-rule="nonzero" fill-opacity="1" transform="matrix(1 0 0 1 287 1284)"/><path d="M51.7978 35.0541 53.8541 32.9979 56.3999 35.5437 62.8624 29.0812 64.9186 31.1374 56.3999 39.6562Z" fill="#FFFFFF" fill-rule="nonzero" fill-opacity="1" transform="matrix(1 0 0 1 287 1284)"/><path d="M51.7978 46.8041 53.8541 44.7478 56.3999 47.2937 62.8624 40.8312 64.9186 42.8874 56.3999 51.4062Z" fill="#FFFFFF" fill-rule="nonzero" fill-opacity="1" transform="matrix(1 0 0 1 287 1284)"/><path d="M51.7978 58.5541 53.8541 56.4978 56.3999 59.0436 62.8624 52.5812 64.9186 54.6374 56.3999 63.1561Z" fill="#FFFFFF" fill-rule="nonzero" fill-opacity="1" transform="matrix(1 0 0 1 287 1284)"/><path d="M51.7978 70.304 53.8541 68.2478 56.3999 70.7936 62.8624 64.3311 64.9186 66.3874 56.3999 74.9061Z" fill="#FFFFFF" fill-rule="nonzero" fill-opacity="1" transform="matrix(1 0 0 1 287 1284)"/></g></g></g></g></svg>