<svg width="4400" height="1815" xmlns="http://www.w3.org/2000/svg" xmlns:xlink="http://www.w3.org/1999/xlink" xml:space="preserve" overflow="hidden"><defs><linearGradient id="back" x1="0" x2="0" y1="0" y2="1"><stop offset="0%" stop-color="#035970"/><stop offset="100%" stop-color="#012c38"/></linearGradient></defs><rect x="0" y="0" width="100%" height="100%" fill="url(#back)"/><g clip-path="url(#clip0)" transform="matrix(1 0 0 1 0 -444)"><g clip-path="url(#clip1)" transform="matrix(0.000360892 0 0 0.000360892 0 448)"><g clip-path="url(#clip3)" transform="matrix(1.3116 0 0 1 0 -0.0505593)"><use width="100%" height="100%" xlink:href="#img2" opacity="1" transform="scale(2112.61 2112.61)"></use></g></g><text fill="#FFFFFF" fill-opacity="1" font-family="Verdana,Verdana_MSFontService,sans-serif" font-style="normal" font-variant="normal" font-weight="700" font-stretch="normal" font-size="60" text-anchor="start" direction="ltr" writing-mode="lr-tb" unicode-bidi="normal" text-decoration="none" transform="matrix(1 0 0 1 405.148 745)">Business Partner </text><text fill="#FFFFFF" fill-opacity="1" font-family="Verdana,Verdana_MSFontService,sans-serif" font-style="normal" font-variant="normal" font-weight="700" font-stretch="normal" font-size="60" text-anchor="start" direction="ltr" writing-mode="lr-tb" unicode-bidi="normal" text-decoration="none" transform="matrix(1 0 0 1 994.679 745)">Number</text><text fill="#FFFFFF" fill-opacity="1" font-family="Verdana,Verdana_MSFontService,sans-serif" font-style="normal" font-variant="normal" font-weight="700" font-stretch="normal" font-size="60" text-anchor="start" direction="ltr" writing-mode="lr-tb" unicode-bidi="normal" text-decoration="none" transform="matrix(1 0 0 1 1282.28 745)">(BPN): </text><text fill="#FFFFFF" fill-opacity="1" font-family="Verdana,Verdana_MSFontService,sans-serif" font-style="normal" font-variant="normal" font-weight="400" font-stretch="normal" font-size="60" text-anchor="start" direction="ltr" writing-mode="lr-tb" unicode-bidi="normal" text-decoration="none" transform="matrix(1 0 0 1 405.148 817)">The </text><text fill="#FFFFFF" fill-opacity="1" font-family="Verdana,Verdana_MSFontService,sans-serif" font-style="normal" font-variant="normal" font-weight="400" font-stretch="normal" font-size="60" text-anchor="start" direction="ltr" writing-mode="lr-tb" unicode-bidi="normal" text-decoration="none" transform="matrix(1 0 0 1 536.346 817)">business partner number is used to identify a partner in the Catena-X network.</text><text fill="#FFFFFF" fill-opacity="1" font-family="Verdana,Verdana_MSFontService,sans-serif" font-style="normal" font-variant="normal" font-weight="700" font-stretch="normal" font-size="60" text-anchor="start" direction="ltr" writing-mode="lr-tb" unicode-bidi="normal" text-decoration="none" transform="matrix(1 0 0 1 405.148 943)">Eclipse</text><text fill="#FFFFFF" fill-opacity="1" font-family="Verdana,Verdana_MSFontService,sans-serif" font-style="normal" font-variant="normal" font-weight="700" font-stretch="normal" font-size="60" text-anchor="start" direction="ltr" writing-mode="lr-tb" unicode-bidi="normal" text-decoration="none" transform="matrix(1 0 0 1 659.523 943)">Dataspace</text><text fill="#FFFFFF" fill-opacity="1" font-family="Verdana,Verdana_MSFontService,sans-serif" font-style="normal" font-variant="normal" font-weight="700" font-stretch="normal" font-size="60" text-anchor="start" direction="ltr" writing-mode="lr-tb" unicode-bidi="normal" text-decoration="none" transform="matrix(1 0 0 1 1026.76 943)">Connector (EDC): </text><text fill="#FFFFFF" fill-opacity="1" font-family="Verdana,Verdana_MSFontService,sans-serif" font-style="normal" font-variant="normal" font-weight="400" font-stretch="normal" font-size="60" text-anchor="start" direction="ltr" writing-mode="lr-tb" unicode-bidi="normal" text-decoration="none" transform="matrix(1 0 0 1 405.148 1015)">The Eclipse Dataspace Connector (EDC) is the standard connector within the Catena-X network that ensures secure and </text><text fill="#FFFFFF" fill-opacity="1" font-family="Verdana,Verdana_MSFontService,sans-serif" font-style="normal" font-variant="normal" font-weight="400" font-stretch="normal" font-size="60" text-anchor="start" direction="ltr" writing-mode="lr-tb" unicode-bidi="normal" text-decoration="none" transform="matrix(1 0 0 1 405.148 1086)">sovereign data exchange.</text><text fill="#FFFFFF" fill-opacity="1" font-family="Verdana,Verdana_MSFontService,sans-serif" font-style="normal" font-variant="normal" font-weight="700" font-stretch="normal" font-size="60" text-anchor="start" direction="ltr" writing-mode="lr-tb" unicode-bidi="normal" text-decoration="none" transform="matrix(1 0 0 1 405.148 1213)">Digital Twin und </text><text fill="#FFFFFF" fill-opacity="1" font-family="Verdana,Verdana_MSFontService,sans-serif" font-style="normal" font-variant="normal" font-weight="700" font-stretch="normal" font-size="60" text-anchor="start" direction="ltr" writing-mode="lr-tb" unicode-bidi="normal" text-decoration="none" transform="matrix(1 0 0 1 975.2 1213)">„Digital Twin Registry“: </text><text fill="#FFFFFF" fill-opacity="1" font-family="Verdana,Verdana_MSFontService,sans-serif" font-style="normal" font-variant="normal" font-weight="400" font-stretch="normal" font-size="60" text-anchor="start" direction="ltr" writing-mode="lr-tb" unicode-bidi="normal" text-decoration="none" transform="matrix(1 0 0 1 405.148 1284)">Each traceable object is mapped via a digital twin and registered in the “Digital Twin Registry”.</text><text fill="#FFFFFF" fill-opacity="1" font-family="Verdana,Verdana_MSFontService,sans-serif" font-style="normal" font-variant="normal" font-weight="700" font-stretch="normal" font-size="60" text-anchor="start" direction="ltr" writing-mode="lr-tb" unicode-bidi="normal" text-decoration="none" transform="matrix(1 0 0 1 405.148 1411)">Catena-X ID </text><text fill="#FFFFFF" fill-opacity="1" font-family="Verdana,Verdana_MSFontService,sans-serif" font-style="normal" font-variant="normal" font-weight="700" font-stretch="normal" font-size="60" text-anchor="start" direction="ltr" writing-mode="lr-tb" unicode-bidi="normal" text-decoration="none" transform="matrix(1 0 0 1 833.117 1411)">-</text><text fill="#FFFFFF" fill-opacity="1" font-family="Verdana,Verdana_MSFontService,sans-serif" font-style="normal" font-variant="normal" font-weight="700" font-stretch="normal" font-size="60" text-anchor="start" direction="ltr" writing-mode="lr-tb" unicode-bidi="normal" text-decoration="none" transform="matrix(1 0 0 1 882.387 1411)">Universally</text><text fill="#FFFFFF" fill-opacity="1" font-family="Verdana,Verdana_MSFontService,sans-serif" font-style="normal" font-variant="normal" font-weight="700" font-stretch="normal" font-size="60" text-anchor="start" direction="ltr" writing-mode="lr-tb" unicode-bidi="normal" text-decoration="none" transform="matrix(1 0 0 1 1277.7 1411)">Unique Identifier (UUID):</text><text fill="#FFFFFF" fill-opacity="1" font-family="Verdana,Verdana_MSFontService,sans-serif" font-style="normal" font-variant="normal" font-weight="400" font-stretch="normal" font-size="60" text-anchor="start" direction="ltr" writing-mode="lr-tb" unicode-bidi="normal" text-decoration="none" transform="matrix(1 0 0 1 405.148 1482)">Each object (raw material, component or vehicle) receives a unique Catena-X ID for an unequivocally identification in the </text><text fill="#FFFFFF" fill-opacity="1" font-family="Verdana,Verdana_MSFontService,sans-serif" font-style="normal" font-variant="normal" font-weight="400" font-stretch="normal" font-size="60" text-anchor="start" direction="ltr" writing-mode="lr-tb" unicode-bidi="normal" text-decoration="none" transform="matrix(1 0 0 1 405.148 1554)">Catena-X data room</text><text fill="#FFFFFF" fill-opacity="1" font-family="Verdana,Verdana_MSFontService,sans-serif" font-style="normal" font-variant="normal" font-weight="400" font-stretch="normal" font-size="60" text-anchor="start" direction="ltr" writing-mode="lr-tb" unicode-bidi="normal" text-decoration="none" transform="matrix(1 0 0 1 1009.53 1554)">.</text><text fill="#FFFFFF" fill-opacity="1" font-family="Verdana,Verdana_MSFontService,sans-serif" font-style="normal" font-variant="normal" font-weight="700" font-stretch="normal" font-size="60" text-anchor="start" direction="ltr" writing-mode="lr-tb" unicode-bidi="normal" text-decoration="none" transform="matrix(1 0 0 1 405.148 1680)">Local</text><text fill="#FFFFFF" fill-opacity="1" font-family="Verdana,Verdana_MSFontService,sans-serif" font-style="normal" font-variant="normal" font-weight="700" font-stretch="normal" font-size="60" text-anchor="start" direction="ltr" writing-mode="lr-tb" unicode-bidi="normal" text-decoration="none" transform="matrix(1 0 0 1 599.367 1680)">Identifiers</text><text fill="#FFFFFF" fill-opacity="1" font-family="Verdana,Verdana_MSFontService,sans-serif" font-style="normal" font-variant="normal" font-weight="700" font-stretch="normal" font-size="60" text-anchor="start" direction="ltr" writing-mode="lr-tb" unicode-bidi="normal" text-decoration="none" transform="matrix(1 0 0 1 954.002 1680)">:</text><text fill="#FFFFFF" fill-opacity="1" font-family="Verdana,Verdana_MSFontService,sans-serif" font-style="normal" font-variant="normal" font-weight="400" font-stretch="normal" font-size="60" text-anchor="start" direction="ltr" writing-mode="lr-tb" unicode-bidi="normal" text-decoration="none" transform="matrix(1 0 0 1 405.148 1752)">Are all identifiers that </text><text fill="#FFFFFF" fill-opacity="1" font-family="Verdana,Verdana_MSFontService,sans-serif" font-style="normal" font-variant="normal" font-weight="400" font-stretch="normal" font-size="60" text-anchor="start" direction="ltr" writing-mode="lr-tb" unicode-bidi="normal" text-decoration="none" transform="matrix(1 0 0 1 1077.18 1752)">identifiy</text><text fill="#FFFFFF" fill-opacity="1" font-family="Verdana,Verdana_MSFontService,sans-serif" font-style="normal" font-variant="normal" font-weight="400" font-stretch="normal" font-size="60" text-anchor="start" direction="ltr" writing-mode="lr-tb" unicode-bidi="normal" text-decoration="none" transform="matrix(1 0 0 1 1339 1752)">an object in a local data room (in the company's own environment). For example, the </text><text fill="#FFFFFF" fill-opacity="1" font-family="Verdana,Verdana_MSFontService,sans-serif" font-style="normal" font-variant="normal" font-weight="400" font-stretch="normal" font-size="60" text-anchor="start" direction="ltr" writing-mode="lr-tb" unicode-bidi="normal" text-decoration="none" transform="matrix(1 0 0 1 405.148 1823)">VIN/VAN or serial number, part number.</text><text fill="#FFFFFF" fill-opacity="1" font-family="Verdana,Verdana_MSFontService,sans-serif" font-style="normal" font-variant="normal" font-weight="700" font-stretch="normal" font-size="60" text-anchor="start" direction="ltr" writing-mode="lr-tb" unicode-bidi="normal" text-decoration="none" transform="matrix(1 0 0 1 405.148 1950)">Aspect</text><text fill="#FFFFFF" fill-opacity="1" font-family="Verdana,Verdana_MSFontService,sans-serif" font-style="normal" font-variant="normal" font-weight="700" font-stretch="normal" font-size="60" text-anchor="start" direction="ltr" writing-mode="lr-tb" unicode-bidi="normal" text-decoration="none" transform="matrix(1 0 0 1 650.929 1950)">models</text><text fill="#FFFFFF" fill-opacity="1" font-family="Verdana,Verdana_MSFontService,sans-serif" font-style="normal" font-variant="normal" font-weight="700" font-stretch="normal" font-size="60" text-anchor="start" direction="ltr" writing-mode="lr-tb" unicode-bidi="normal" text-decoration="none" transform="matrix(1 0 0 1 912.752 1950)">/ </text><text fill="#FFFFFF" fill-opacity="1" font-family="Verdana,Verdana_MSFontService,sans-serif" font-style="normal" font-variant="normal" font-weight="700" font-stretch="normal" font-size="60" text-anchor="start" direction="ltr" writing-mode="lr-tb" unicode-bidi="normal" text-decoration="none" transform="matrix(1 0 0 1 974.627 1950)">data</text><text fill="#FFFFFF" fill-opacity="1" font-family="Verdana,Verdana_MSFontService,sans-serif" font-style="normal" font-variant="normal" font-weight="700" font-stretch="normal" font-size="60" text-anchor="start" direction="ltr" writing-mode="lr-tb" unicode-bidi="normal" text-decoration="none" transform="matrix(1 0 0 1 1143.06 1950)">models</text><text fill="#FFFFFF" fill-opacity="1" font-family="Verdana,Verdana_MSFontService,sans-serif" font-style="normal" font-variant="normal" font-weight="700" font-stretch="normal" font-size="60" text-anchor="start" direction="ltr" writing-mode="lr-tb" unicode-bidi="normal" text-decoration="none" transform="matrix(1 0 0 1 1404.89 1950)">(BAMM):</text><text fill="#FFFFFF" fill-opacity="1" font-family="Verdana,Verdana_MSFontService,sans-serif" font-style="normal" font-variant="normal" font-weight="400" font-stretch="normal" font-size="60" text-anchor="start" direction="ltr" writing-mode="lr-tb" unicode-bidi="normal" text-decoration="none" transform="matrix(1 0 0 1 405.148 2021)">Aspect models describe the structure of the data, including the data fields used in them and their meaning/semantics.</text><g clip-path="url(#clip4)"><g clip-path="url(#clip5)"><g clip-path="url(#clip6)"><path d="M236.021 732.271 227.896 732.271 227.896 724.146 236.021 724.146 236.021 732.271ZM236.021 753.938 227.896 753.938 227.896 745.812 236.021 745.812 236.021 753.938ZM236.021 775.604 227.896 775.604 227.896 767.479 236.021 767.479 236.021 775.604ZM236.021 797.271 227.896 797.271 227.896 789.146 236.021 789.146 236.021 797.271ZM217.063 732.271 208.938 732.271 208.938 724.146 217.063 724.146 217.063 732.271ZM217.063 753.938 208.938 753.938 208.938 745.812 217.063 745.812 217.063 753.938ZM217.063 775.604 208.938 775.604 208.938 767.479 217.063 767.479 217.063 775.604ZM217.063 805.396 208.938 805.396 208.938 789.146 217.063 789.146 217.063 805.396ZM198.104 732.271 189.979 732.271 189.979 724.146 198.104 724.146 198.104 732.271ZM198.104 753.938 189.979 753.938 189.979 745.812 198.104 745.812 198.104 753.938ZM198.104 775.604 189.979 775.604 189.979 767.479 198.104 767.479 198.104 775.604ZM198.104 797.271 189.979 797.271 189.979 789.146 198.104 789.146 198.104 797.271ZM245.5 805.396 245.5 714.667 241.438 714.667 241.438 706.542 237.375 706.542 237.375 701.125 188.625 701.125 188.625 706.542 184.563 706.542 184.563 714.667 180.5 714.667 180.5 805.396 175.083 805.396 175.083 814.875 250.917 814.875 250.917 805.396 245.5 805.396Z" fill="#FFFFFF" fill-rule="nonzero" fill-opacity="1"/></g></g></g><g clip-path="url(#clip7)"><g clip-path="url(#clip8)"><g clip-path="url(#clip9)"><path d="M248.479 1033.48C243.74 1038.22 236.021 1038.22 231.281 1033.48L219.771 1021.97C216.115 1018.31 215.167 1012.76 217.469 1008.16L227.49 1018.18C229.115 1019.67 231.552 1019.67 233.177 1018.04 234.667 1016.55 234.802 1013.98 233.313 1012.35L223.292 1002.33C227.896 1000.17 233.448 1001.11 237.104 1004.77L248.615 1016.28C253.219 1021.02 253.219 1028.6 248.479 1033.48ZM189.031 991.229 177.521 979.719C172.781 974.979 172.781 967.26 177.521 962.521 182.261 957.781 189.979 957.781 194.719 962.521L206.229 974.031C209.886 977.687 210.833 983.24 208.667 987.844L200.542 979.719C198.917 978.229 196.479 978.229 194.854 979.854 193.365 981.344 193.229 983.917 194.719 985.542L202.844 993.667C198.24 995.833 192.688 994.885 189.031 991.229ZM254.167 1010.46 242.656 998.948C235.886 992.042 225.052 990.958 217.063 996.375L214.625 993.937C219.906 985.948 218.823 975.25 212.052 968.344L200.542 956.833C192.552 949.521 180.094 949.792 172.375 957.375 164.656 965.094 164.386 977.417 171.833 985.542L183.344 997.052C190.115 1003.96 200.948 1005.04 208.938 999.625L211.375 1002.06C206.094 1010.05 207.177 1020.75 213.948 1027.66L225.458 1039.17C233.448 1046.61 245.906 1046.34 253.625 1038.62 261.344 1030.91 261.615 1018.45 254.167 1010.46Z" fill="#FFFFFF" fill-rule="nonzero" fill-opacity="1"/></g></g></g><g clip-path="url(#clip10)"><g clip-path="url(#clip11)"><g clip-path="url(#clip12)"><path d="M258.229 1200.27C257.146 1193.91 251.458 1189.03 244.823 1189.03 244.146 1189.03 243.333 1189.17 242.656 1189.17 239.406 1185.1 234.396 1182.53 228.708 1182.53 220.448 1182.53 213.542 1188.08 211.375 1195.67 203.792 1197.16 198.104 1203.79 198.104 1211.78 198.104 1220.85 205.417 1228.17 214.354 1228.17L214.354 1228.17C214.354 1228.17 254.438 1228.17 254.979 1228.17 262.833 1228.17 268.656 1221.8 268.656 1213.95 268.656 1207.45 264.188 1202.03 258.229 1200.27ZM254.167 1220.04 214.083 1220.04C210.969 1219.77 208.261 1218.01 206.906 1215.3 205.688 1212.46 205.958 1209.21 207.854 1206.64 209.479 1204.47 211.917 1203.25 214.49 1203.25 214.896 1203.25 215.438 1203.25 215.844 1203.39L218.281 1203.79 218.281 1201.08C218.281 1196.21 221.531 1192.01 226.271 1190.93 227.083 1190.79 227.896 1190.66 228.708 1190.66 228.708 1190.66 228.708 1190.66 228.708 1190.66 228.708 1190.66 228.708 1190.66 228.708 1190.66 232.636 1190.66 236.156 1192.82 237.917 1196.34L238.729 1197.97 240.49 1197.29C241.302 1197.02 242.25 1196.89 243.198 1196.89 244.958 1196.89 246.583 1197.43 248.073 1198.37 250.24 1200 251.594 1202.57 251.594 1205.28L251.594 1207.45 254.302 1207.45C257.823 1207.45 260.667 1210.29 260.667 1213.81 260.531 1217.2 257.688 1220.04 254.167 1220.04Z" fill="#FFFFFF" fill-rule="nonzero" fill-opacity="1"/><path d="M218.146 1233.58 161.813 1233.58C159.375 1233.58 157.479 1235.48 157.479 1237.92L157.479 1276.65C157.479 1279.08 159.375 1280.98 161.813 1280.98 161.813 1280.98 161.813 1280.98 161.813 1280.98L183.208 1280.98 183.208 1286.4 173.729 1286.4 173.729 1294.52 206.229 1294.52 206.229 1286.4 196.75 1286.4 196.75 1280.98 218.146 1280.98C220.583 1280.98 222.479 1279.08 222.479 1276.65L222.479 1237.92C222.479 1235.48 220.583 1233.58 218.146 1233.58ZM214.354 1272.85 165.604 1272.85 165.604 1241.71 214.354 1241.71 214.354 1272.85Z" fill="#FFFFFF" fill-rule="nonzero" fill-opacity="1"/><path d="M242.521 1233.58C243.875 1235.34 244.552 1237.65 244.552 1239.81 244.552 1243.87 242.25 1247.53 238.729 1249.43L238.729 1243.87 228.844 1253.9 238.729 1263.65 238.729 1258.09C248.886 1255.39 254.844 1244.96 252 1234.8 251.865 1234.4 251.729 1233.99 251.594 1233.58L242.521 1233.58Z" fill="#FFFFFF" fill-rule="nonzero" fill-opacity="1"/><path d="M179.011 1228.17C177.927 1226.81 176.979 1224.1 176.979 1221.94 176.979 1217.87 179.281 1214.22 182.802 1212.32L182.802 1217.87 192.688 1207.85 182.802 1198.1 182.802 1203.66C172.646 1206.36 166.688 1216.79 169.531 1226.95 169.667 1227.35 169.802 1227.76 169.938 1228.17L179.011 1228.17Z" fill="#FFFFFF" fill-rule="nonzero" fill-opacity="1"/></g></g></g><g clip-path="url(#clip13)"><g clip-path="url(#clip14)"><g clip-path="url(#clip15)"><path d="M14.904 17.6042 23.0289 17.6042 23.0289 58.2291 14.904 58.2291Z" fill="#FFFFFF" fill-rule="nonzero" fill-opacity="1" transform="matrix(1 0 0 1 148 1414)"/><path d="M50.1123 25.7292C51.6081 25.7292 52.8206 26.9417 52.8206 28.4375L52.8206 47.3958C52.8206 48.8916 51.6081 50.1041 50.1123 50.1041L41.9873 50.1041C40.4915 50.1041 39.2789 48.8916 39.2789 47.3958L39.2789 28.4375C39.2789 26.9417 40.4915 25.7292 41.9873 25.7292L50.1123 25.7292M50.1123 17.6042 41.9873 17.6042C36.0042 17.6042 31.1539 22.4544 31.1539 28.4375L31.1539 47.3958C31.1539 53.3789 36.0042 58.2291 41.9873 58.2291L50.1123 58.2291C56.0954 58.2291 60.9456 53.3789 60.9456 47.3958L60.9456 28.4375C60.9456 22.4544 56.0954 17.6042 50.1123 17.6042Z" fill="#FFFFFF" fill-rule="nonzero" fill-opacity="1" transform="matrix(1 0 0 1 148 1414)"/><path d="M69.0706 17.6042 77.1956 17.6042 77.1956 58.2291 69.0706 58.2291Z" fill="#FFFFFF" fill-rule="nonzero" fill-opacity="1" transform="matrix(1 0 0 1 148 1414)"/><path d="M104.279 25.7292C105.775 25.7292 106.987 26.9417 106.987 28.4375L106.987 47.3958C106.987 48.8916 105.775 50.1041 104.279 50.1041L96.1539 50.1041C94.6581 50.1041 93.4456 48.8916 93.4456 47.3958L93.4456 28.4375C93.4456 26.9417 94.6581 25.7292 96.1539 25.7292L104.279 25.7292M104.279 17.6042 96.1539 17.6042C90.1708 17.6042 85.3206 22.4544 85.3206 28.4375L85.3206 47.3958C85.3206 53.3789 90.1708 58.2291 96.1539 58.2291L104.279 58.2291C110.262 58.2291 115.112 53.3789 115.112 47.3958L115.112 28.4375C115.112 22.4544 110.262 17.6042 104.279 17.6042Z" fill="#FFFFFF" fill-rule="nonzero" fill-opacity="1" transform="matrix(1 0 0 1 148 1414)"/><path d="M14.904 71.7708 23.0289 71.7708 23.0289 112.396 14.904 112.396Z" fill="#FFFFFF" fill-rule="nonzero" fill-opacity="1" transform="matrix(1 0 0 1 148 1414)"/><path d="M50.1123 79.8958C51.6081 79.8958 52.8206 81.1083 52.8206 82.6041L52.8206 101.562C52.8206 103.058 51.6081 104.271 50.1123 104.271L41.9873 104.271C40.4915 104.271 39.2789 103.058 39.2789 101.562L39.2789 82.6041C39.2789 81.1083 40.4915 79.8958 41.9873 79.8958L50.1123 79.8958M50.1123 71.7708 41.9873 71.7708C36.0042 71.7708 31.1539 76.621 31.1539 82.6041L31.1539 101.562C31.1539 107.546 36.0042 112.396 41.9873 112.396L50.1123 112.396C56.0954 112.396 60.9456 107.546 60.9456 101.562L60.9456 82.6041C60.9456 76.621 56.0954 71.7708 50.1123 71.7708Z" fill="#FFFFFF" fill-rule="nonzero" fill-opacity="1" transform="matrix(1 0 0 1 148 1414)"/><path d="M69.0706 71.7708 77.1956 71.7708 77.1956 112.396 69.0706 112.396Z" fill="#FFFFFF" fill-rule="nonzero" fill-opacity="1" transform="matrix(1 0 0 1 148 1414)"/><path d="M104.279 79.8958C105.775 79.8958 106.987 81.1083 106.987 82.6041L106.987 101.562C106.987 103.058 105.775 104.271 104.279 104.271L96.1539 104.271C94.6581 104.271 93.4456 103.058 93.4456 101.562L93.4456 82.6041C93.4456 81.1083 94.6581 79.8958 96.1539 79.8958L104.279 79.8958M104.279 71.7708 96.1539 71.7708C90.1708 71.7708 85.3206 76.621 85.3206 82.6041L85.3206 101.562C85.3206 107.546 90.1708 112.396 96.1539 112.396L104.279 112.396C110.262 112.396 115.112 107.546 115.112 101.562L115.112 82.6041C115.112 76.621 110.262 71.7708 104.279 71.7708Z" fill="#FFFFFF" fill-rule="nonzero" fill-opacity="1" transform="matrix(1 0 0 1 148 1414)"/></g></g></g><g clip-path="url(#clip16)"><g clip-path="url(#clip17)"><g clip-path="url(#clip18)"><path d="M186.146 1672.96 253.854 1672.96 253.854 1765.04 186.146 1765.04 186.146 1672.96ZM178.021 1773.17 261.979 1773.17 261.979 1664.83 178.021 1664.83 178.021 1773.17Z" fill="#FFFFFF" fill-rule="nonzero" fill-opacity="1"/><path d="M222.708 1685.15 245.729 1685.15 245.729 1690.56 222.708 1690.56Z" fill="#FFFFFF" fill-rule="nonzero" fill-opacity="1"/><path d="M222.708 1706.81 245.729 1706.81 245.729 1712.23 222.708 1712.23Z" fill="#FFFFFF" fill-rule="nonzero" fill-opacity="1"/><path d="M222.708 1750.15 245.729 1750.15 245.729 1755.56 222.708 1755.56Z" fill="#FFFFFF" fill-rule="nonzero" fill-opacity="1"/><path d="M222.708 1728.48 245.729 1728.48 245.729 1733.9 222.708 1733.9Z" fill="#FFFFFF" fill-rule="nonzero" fill-opacity="1"/><path d="M214.312 1682.17 210.521 1678.38 201.583 1687.31 198.063 1683.79 194.271 1687.58 201.583 1694.9Z" fill="#FFFFFF" fill-rule="nonzero" fill-opacity="1"/><path d="M214.312 1703.83 210.521 1700.04 201.583 1708.98 198.063 1705.46 194.271 1709.25 201.583 1716.56Z" fill="#FFFFFF" fill-rule="nonzero" fill-opacity="1"/><path d="M214.312 1725.5 210.521 1721.71 201.583 1730.65 198.063 1727.13 194.271 1730.92 201.583 1738.23Z" fill="#FFFFFF" fill-rule="nonzero" fill-opacity="1"/><path d="M214.312 1746.9 210.521 1743.1 201.583 1752.04 198.063 1748.52 194.271 1752.31 201.583 1759.63Z" fill="#FFFFFF" fill-rule="nonzero" fill-opacity="1"/></g></g></g><g clip-path="url(#clip19)"><g clip-path="url(#clip20)"><g clip-path="url(#clip21)"><path d="M186.146 2006.04 186.146 1913.96 220 1913.96 220 1942.4 253.854 1942.4 253.854 2006.04 186.146 2006.04ZM228.125 1917.34 245.052 1934.27 228.125 1934.27 228.125 1917.34ZM228.125 1905.83 178.021 1905.83 178.021 2014.17 261.979 2014.17 261.979 1935.63 228.125 1905.83Z" fill="#FFFFFF" fill-rule="nonzero" fill-opacity="1"/><path d="M194.271 1955.94 245.729 1955.94 245.729 1961.35 194.271 1961.35Z" fill="#FFFFFF" fill-rule="nonzero" fill-opacity="1"/><path d="M194.271 1945.1 211.875 1945.1 211.875 1950.52 194.271 1950.52Z" fill="#FFFFFF" fill-rule="nonzero" fill-opacity="1"/><path d="M194.271 1966.77 245.729 1966.77 245.729 1972.19 194.271 1972.19Z" fill="#FFFFFF" fill-rule="nonzero" fill-opacity="1"/><path d="M194.271 1977.6 245.729 1977.6 245.729 1983.02 194.271 1983.02Z" fill="#FFFFFF" fill-rule="nonzero" fill-opacity="1"/><path d="M194.271 1988.44 245.729 1988.44 245.729 1993.85 194.271 1993.85Z" fill="#FFFFFF" fill-rule="nonzero" fill-opacity="1"/></g></g></g></g></svg>