<svg width="4404" height="1806" xmlns="http://www.w3.org/2000/svg" xmlns:xlink="http://www.w3.org/1999/xlink" xml:space="preserve" overflow="hidden"><defs><clipPath id="clip0"><rect x="18" y="334" width="4404" height="1806"/></clipPath><clipPath id="clip1"><rect x="35" y="882" width="227" height="228"/></clipPath><clipPath id="clip2"><rect x="35" y="882" width="227" height="228"/></clipPath><clipPath id="clip3"><rect x="35" y="882" width="227" height="228"/></clipPath><clipPath id="clip4"><rect x="35" y="1509" width="227" height="228"/></clipPath><clipPath id="clip5"><rect x="35" y="1509" width="227" height="228"/></clipPath><clipPath id="clip6"><rect x="35" y="1509" width="227" height="228"/></clipPath><clipPath id="clip7"><rect x="35" y="367" width="227" height="229"/></clipPath><clipPath id="clip8"><rect x="35" y="367" width="227" height="229"/></clipPath><clipPath id="clip9"><rect x="35" y="367" width="227" height="229"/></clipPath></defs><g clip-path="url(#clip0)" transform="translate(-18 -334)"><path d="M21 386.407C21 360.225 42.2247 339 68.4068 339L4373.59 339C4399.77 339 4421 360.225 4421 386.407L4421 2088.59C4421 2114.78 4399.77 2136 4373.59 2136L68.4068 2136C42.2247 2136 21 2114.78 21 2088.59Z" fill="#F9F9F9" fill-rule="evenodd" fill-opacity="1"/><text fill="#015970" fill-opacity="1" font-family="Verdana,Verdana_MSFontService,sans-serif" font-style="normal" font-variant="normal" font-weight="700" font-stretch="normal" font-size="60" text-anchor="start" direction="ltr" writing-mode="lr-tb" unicode-bidi="normal" text-decoration="none" transform="matrix(1 0 0 1 359.762 469)">Standardization</text><text fill="#000000" fill-opacity="1" font-family="Verdana,Verdana_MSFontService,sans-serif" font-style="normal" font-variant="normal" font-weight="400" font-stretch="normal" font-size="60" text-anchor="start" direction="ltr" writing-mode="lr-tb" unicode-bidi="normal" text-decoration="none" transform="matrix(1 0 0 1 911.481 469)">instead of complex individual coordination per process partner.</text><text fill="#000000" fill-opacity="1" font-family="Arial,Arial_MSFontService,sans-serif" font-style="normal" font-variant="normal" font-weight="400" font-stretch="normal" font-size="55" text-anchor="start" direction="ltr" writing-mode="lr-tb" unicode-bidi="normal" text-decoration="none" transform="matrix(1 0 0 1 359.762 564)">•</text><text fill="#000000" fill-opacity="1" font-family="Verdana,Verdana_MSFontService,sans-serif" font-style="normal" font-variant="normal" font-weight="400" font-stretch="normal" font-size="55" text-anchor="start" direction="ltr" writing-mode="lr-tb" unicode-bidi="normal" text-decoration="none" transform="matrix(1 0 0 1 462.887 564)">The </text><text fill="#000000" fill-opacity="1" font-family="Verdana,Verdana_MSFontService,sans-serif" font-style="normal" font-variant="normal" font-weight="400" font-stretch="normal" font-size="55" text-anchor="start" direction="ltr" writing-mode="lr-tb" unicode-bidi="normal" text-decoration="none" transform="matrix(1 0 0 1 583.773 564)">standards developed by Catena</text><text fill="#000000" fill-opacity="1" font-family="Verdana,Verdana_MSFontService,sans-serif" font-style="normal" font-variant="normal" font-weight="400" font-stretch="normal" font-size="55" text-anchor="start" direction="ltr" writing-mode="lr-tb" unicode-bidi="normal" text-decoration="none" transform="matrix(1 0 0 1 1457.42 564)">-</text><text fill="#000000" fill-opacity="1" font-family="Verdana,Verdana_MSFontService,sans-serif" font-style="normal" font-variant="normal" font-weight="400" font-stretch="normal" font-size="55" text-anchor="start" direction="ltr" writing-mode="lr-tb" unicode-bidi="normal" text-decoration="none" transform="matrix(1 0 0 1 1480.48 564)">X </text><text fill="#000000" fill-opacity="1" font-family="Verdana,Verdana_MSFontService,sans-serif" font-style="normal" font-variant="normal" font-weight="400" font-stretch="normal" font-size="55" text-anchor="start" direction="ltr" writing-mode="lr-tb" unicode-bidi="normal" text-decoration="none" transform="matrix(1 0 0 1 1537.77 564)">e.V</text><text fill="#000000" fill-opacity="1" font-family="Verdana,Verdana_MSFontService,sans-serif" font-style="normal" font-variant="normal" font-weight="400" font-stretch="normal" font-size="55" text-anchor="start" direction="ltr" writing-mode="lr-tb" unicode-bidi="normal" text-decoration="none" transform="matrix(1 0 0 1 1620.5 564)">.</text><text fill="#000000" fill-opacity="1" font-family="Verdana,Verdana_MSFontService,sans-serif" font-style="normal" font-variant="normal" font-weight="400" font-stretch="normal" font-size="55" text-anchor="start" direction="ltr" writing-mode="lr-tb" unicode-bidi="normal" text-decoration="none" transform="matrix(1 0 0 1 1660.03 564)">ensure unified communication of the exchanged data. Standardizing the data content ensures </text><text fill="#000000" fill-opacity="1" font-family="Verdana,Verdana_MSFontService,sans-serif" font-style="normal" font-variant="normal" font-weight="400" font-stretch="normal" font-size="55" text-anchor="start" direction="ltr" writing-mode="lr-tb" unicode-bidi="normal" text-decoration="none" transform="matrix(1 0 0 1 462.887 630)">cooperation between supply chain partners and the different applications used by each company. </text><text fill="#000000" fill-opacity="1" font-family="Arial,Arial_MSFontService,sans-serif" font-style="normal" font-variant="normal" font-weight="400" font-stretch="normal" font-size="55" text-anchor="start" direction="ltr" writing-mode="lr-tb" unicode-bidi="normal" text-decoration="none" transform="matrix(1 0 0 1 359.762 723)">•</text><text fill="#000000" fill-opacity="1" font-family="Verdana,Verdana_MSFontService,sans-serif" font-style="normal" font-variant="normal" font-weight="400" font-stretch="normal" font-size="55" text-anchor="start" direction="ltr" writing-mode="lr-tb" unicode-bidi="normal" text-decoration="none" transform="matrix(1 0 0 1 462.887 723)">Within the Catena</text><text fill="#000000" fill-opacity="1" font-family="Verdana,Verdana_MSFontService,sans-serif" font-style="normal" font-variant="normal" font-weight="400" font-stretch="normal" font-size="55" text-anchor="start" direction="ltr" writing-mode="lr-tb" unicode-bidi="normal" text-decoration="none" transform="matrix(1 0 0 1 961.325 723)">-</text><text fill="#000000" fill-opacity="1" font-family="Verdana,Verdana_MSFontService,sans-serif" font-style="normal" font-variant="normal" font-weight="400" font-stretch="normal" font-size="55" text-anchor="start" direction="ltr" writing-mode="lr-tb" unicode-bidi="normal" text-decoration="none" transform="matrix(1 0 0 1 984.379 723)">X network, the data must be provided precisely in this uniform standardized format and, depending on the use c</text><text fill="#000000" fill-opacity="1" font-family="Verdana,Verdana_MSFontService,sans-serif" font-style="normal" font-variant="normal" font-weight="400" font-stretch="normal" font-size="55" text-anchor="start" direction="ltr" writing-mode="lr-tb" unicode-bidi="normal" text-decoration="none" transform="matrix(1 0 0 1 4112.92 723)">ase, </text><text fill="#000000" fill-opacity="1" font-family="Verdana,Verdana_MSFontService,sans-serif" font-style="normal" font-variant="normal" font-weight="400" font-stretch="normal" font-size="55" text-anchor="start" direction="ltr" writing-mode="lr-tb" unicode-bidi="normal" text-decoration="none" transform="matrix(1 0 0 1 462.887 789)">must be prepared for data provision accordingly.</text><text fill="#000000" fill-opacity="1" font-family="Verdana,Verdana_MSFontService,sans-serif" font-style="normal" font-variant="normal" font-weight="400" font-stretch="normal" font-size="60" text-anchor="start" direction="ltr" writing-mode="lr-tb" unicode-bidi="normal" text-decoration="none" transform="matrix(1 0 0 1 359.762 970)">Your data remains your data thanks to </text><text fill="#015970" fill-opacity="1" font-family="Verdana,Verdana_MSFontService,sans-serif" font-style="normal" font-variant="normal" font-weight="700" font-stretch="normal" font-size="60" text-anchor="start" direction="ltr" writing-mode="lr-tb" unicode-bidi="normal" text-decoration="none" transform="matrix(1 0 0 1 1537.95 970)">data sovereignty</text><text fill="#000000" fill-opacity="1" font-family="Verdana,Verdana_MSFontService,sans-serif" font-style="normal" font-variant="normal" font-weight="400" font-stretch="normal" font-size="60" text-anchor="start" direction="ltr" writing-mode="lr-tb" unicode-bidi="normal" text-decoration="none" transform="matrix(1 0 0 1 2101.13 970)">.</text><text fill="#000000" fill-opacity="1" font-family="Arial,Arial_MSFontService,sans-serif" font-style="normal" font-variant="normal" font-weight="400" font-stretch="normal" font-size="55" text-anchor="start" direction="ltr" writing-mode="lr-tb" unicode-bidi="normal" text-decoration="none" transform="matrix(1 0 0 1 359.762 1064)">•</text><text fill="#000000" fill-opacity="1" font-family="Verdana,Verdana_MSFontService,sans-serif" font-style="normal" font-variant="normal" font-weight="400" font-stretch="normal" font-size="55" text-anchor="start" direction="ltr" writing-mode="lr-tb" unicode-bidi="normal" text-decoration="none" transform="matrix(1 0 0 1 462.887 1064)">Each </text><text fill="#000000" fill-opacity="1" font-family="Verdana,Verdana_MSFontService,sans-serif" font-style="normal" font-variant="normal" font-weight="400" font-stretch="normal" font-size="55" text-anchor="start" direction="ltr" writing-mode="lr-tb" unicode-bidi="normal" text-decoration="none" transform="matrix(1 0 0 1 614.137 1064)">partner in the supply chain retains control over their data. As the owner of their data, they can decide at any time which pa</text><text fill="#000000" fill-opacity="1" font-family="Verdana,Verdana_MSFontService,sans-serif" font-style="normal" font-variant="normal" font-weight="400" font-stretch="normal" font-size="55" text-anchor="start" direction="ltr" writing-mode="lr-tb" unicode-bidi="normal" text-decoration="none" transform="matrix(1 0 0 1 4052.51 1064)">rtn</text><text fill="#000000" fill-opacity="1" font-family="Verdana,Verdana_MSFontService,sans-serif" font-style="normal" font-variant="normal" font-weight="400" font-stretch="normal" font-size="55" text-anchor="start" direction="ltr" writing-mode="lr-tb" unicode-bidi="normal" text-decoration="none" transform="matrix(1 0 0 1 4132.72 1064)">ers </text><text fill="#000000" fill-opacity="1" font-family="Verdana,Verdana_MSFontService,sans-serif" font-style="normal" font-variant="normal" font-weight="400" font-stretch="normal" font-size="55" text-anchor="start" direction="ltr" writing-mode="lr-tb" unicode-bidi="normal" text-decoration="none" transform="matrix(1 0 0 1 462.887 1130)">are granted access to it.</text><text fill="#000000" fill-opacity="1" font-family="Arial,Arial_MSFontService,sans-serif" font-style="normal" font-variant="normal" font-weight="400" font-stretch="normal" font-size="55" text-anchor="start" direction="ltr" writing-mode="lr-tb" unicode-bidi="normal" text-decoration="none" transform="matrix(1 0 0 1 359.762 1224)">•</text><text fill="#000000" fill-opacity="1" font-family="Verdana,Verdana_MSFontService,sans-serif" font-style="normal" font-variant="normal" font-weight="400" font-stretch="normal" font-size="55" text-anchor="start" direction="ltr" writing-mode="lr-tb" unicode-bidi="normal" text-decoration="none" transform="matrix(1 0 0 1 462.887 1224)">Each data owner retains the independent decision regarding the terms of use of the data, such as how long can this data be ac</text><text fill="#000000" fill-opacity="1" font-family="Verdana,Verdana_MSFontService,sans-serif" font-style="normal" font-variant="normal" font-weight="400" font-stretch="normal" font-size="55" text-anchor="start" direction="ltr" writing-mode="lr-tb" unicode-bidi="normal" text-decoration="none" transform="matrix(1 0 0 1 3996.06 1224)">ces</text><text fill="#000000" fill-opacity="1" font-family="Verdana,Verdana_MSFontService,sans-serif" font-style="normal" font-variant="normal" font-weight="400" font-stretch="normal" font-size="55" text-anchor="start" direction="ltr" writing-mode="lr-tb" unicode-bidi="normal" text-decoration="none" transform="matrix(1 0 0 1 4086.01 1224)">sed or </text><text fill="#000000" fill-opacity="1" font-family="Verdana,Verdana_MSFontService,sans-serif" font-style="normal" font-variant="normal" font-weight="400" font-stretch="normal" font-size="55" text-anchor="start" direction="ltr" writing-mode="lr-tb" unicode-bidi="normal" text-decoration="none" transform="matrix(1 0 0 1 462.887 1290)">the purpose of use. </text><text fill="#000000" fill-opacity="1" font-family="Verdana,Verdana_MSFontService,sans-serif" font-style="normal" font-variant="normal" font-weight="400" font-stretch="normal" font-size="55" text-anchor="start" direction="ltr" writing-mode="lr-tb" unicode-bidi="normal" text-decoration="none" transform="matrix(1 0 0 1 462.887 1356)">This is ensured by the Eclipse Dataspace Connector (EDC) as the central software communication component within Catena</text><text fill="#000000" fill-opacity="1" font-family="Verdana,Verdana_MSFontService,sans-serif" font-style="normal" font-variant="normal" font-weight="400" font-stretch="normal" font-size="55" text-anchor="start" direction="ltr" writing-mode="lr-tb" unicode-bidi="normal" text-decoration="none" transform="matrix(1 0 0 1 3898.19 1356)">-</text><text fill="#000000" fill-opacity="1" font-family="Verdana,Verdana_MSFontService,sans-serif" font-style="normal" font-variant="normal" font-weight="400" font-stretch="normal" font-size="55" text-anchor="start" direction="ltr" writing-mode="lr-tb" unicode-bidi="normal" text-decoration="none" transform="matrix(1 0 0 1 3921.24 1356)">X. More </text><text fill="#000000" fill-opacity="1" font-family="Verdana,Verdana_MSFontService,sans-serif" font-style="normal" font-variant="normal" font-weight="400" font-stretch="normal" font-size="55" text-anchor="start" direction="ltr" writing-mode="lr-tb" unicode-bidi="normal" text-decoration="none" transform="matrix(1 0 0 1 462.887 1422)">information about the EDC is available on the Catena</text><text fill="#000000" fill-opacity="1" font-family="Verdana,Verdana_MSFontService,sans-serif" font-style="normal" font-variant="normal" font-weight="400" font-stretch="normal" font-size="55" text-anchor="start" direction="ltr" writing-mode="lr-tb" unicode-bidi="normal" text-decoration="none" transform="matrix(1 0 0 1 1936.64 1422)">-</text><text fill="#000000" fill-opacity="1" font-family="Verdana,Verdana_MSFontService,sans-serif" font-style="normal" font-variant="normal" font-weight="400" font-stretch="normal" font-size="55" text-anchor="start" direction="ltr" writing-mode="lr-tb" unicode-bidi="normal" text-decoration="none" transform="matrix(1 0 0 1 1959.69 1422)">X </text><text fill="#000000" fill-opacity="1" font-family="Verdana,Verdana_MSFontService,sans-serif" font-style="normal" font-variant="normal" font-weight="400" font-stretch="normal" font-size="55" text-anchor="start" direction="ltr" writing-mode="lr-tb" unicode-bidi="normal" text-decoration="none" transform="matrix(1 0 0 1 2016.98 1422)">website.</text><text fill="#015970" fill-opacity="1" font-family="Verdana,Verdana_MSFontService,sans-serif" font-style="normal" font-variant="normal" font-weight="700" font-stretch="normal" font-size="60" text-anchor="start" direction="ltr" writing-mode="lr-tb" unicode-bidi="normal" text-decoration="none" transform="matrix(1 0 0 1 359.762 1602)">Interoperability</text><text fill="#000000" fill-opacity="1" font-family="Verdana,Verdana_MSFontService,sans-serif" font-style="normal" font-variant="normal" font-weight="400" font-stretch="normal" font-size="60" text-anchor="start" direction="ltr" writing-mode="lr-tb" unicode-bidi="normal" text-decoration="none" transform="matrix(1 0 0 1 913.2 1602)">allows you to decide which software product suits you best.</text><text fill="#000000" fill-opacity="1" font-family="Arial,Arial_MSFontService,sans-serif" font-style="normal" font-variant="normal" font-weight="400" font-stretch="normal" font-size="55" text-anchor="start" direction="ltr" writing-mode="lr-tb" unicode-bidi="normal" text-decoration="none" transform="matrix(1 0 0 1 359.762 1697)">•</text><text fill="#000000" fill-opacity="1" font-family="Verdana,Verdana_MSFontService,sans-serif" font-style="normal" font-variant="normal" font-weight="400" font-stretch="normal" font-size="55" text-anchor="start" direction="ltr" writing-mode="lr-tb" unicode-bidi="normal" text-decoration="none" transform="matrix(1 0 0 1 462.887 1697)">Each </text><text fill="#000000" fill-opacity="1" font-family="Verdana,Verdana_MSFontService,sans-serif" font-style="normal" font-variant="normal" font-weight="400" font-stretch="normal" font-size="55" text-anchor="start" direction="ltr" writing-mode="lr-tb" unicode-bidi="normal" text-decoration="none" transform="matrix(1 0 0 1 614.137 1697)">partner decides for themselves which solution is best suited to their in</text><text fill="#000000" fill-opacity="1" font-family="Verdana,Verdana_MSFontService,sans-serif" font-style="normal" font-variant="normal" font-weight="400" font-stretch="normal" font-size="55" text-anchor="start" direction="ltr" writing-mode="lr-tb" unicode-bidi="normal" text-decoration="none" transform="matrix(1 0 0 1 2563.29 1697)">-</text><text fill="#000000" fill-opacity="1" font-family="Verdana,Verdana_MSFontService,sans-serif" font-style="normal" font-variant="normal" font-weight="400" font-stretch="normal" font-size="55" text-anchor="start" direction="ltr" writing-mode="lr-tb" unicode-bidi="normal" text-decoration="none" transform="matrix(1 0 0 1 2588.5 1697)">house </text><text fill="#000000" fill-opacity="1" font-family="Verdana,Verdana_MSFontService,sans-serif" font-style="normal" font-variant="normal" font-weight="400" font-stretch="normal" font-size="55" text-anchor="start" direction="ltr" writing-mode="lr-tb" unicode-bidi="normal" text-decoration="none" transform="matrix(1 0 0 1 2772.41 1697)">IT</text><text fill="#000000" fill-opacity="1" font-family="Verdana,Verdana_MSFontService,sans-serif" font-style="normal" font-variant="normal" font-weight="400" font-stretch="normal" font-size="55" text-anchor="start" direction="ltr" writing-mode="lr-tb" unicode-bidi="normal" text-decoration="none" transform="matrix(1 0 0 1 2848.6 1697)">infrastructure. Within the various software </text><text fill="#000000" fill-opacity="1" font-family="Verdana,Verdana_MSFontService,sans-serif" font-style="normal" font-variant="normal" font-weight="400" font-stretch="normal" font-size="55" text-anchor="start" direction="ltr" writing-mode="lr-tb" unicode-bidi="normal" text-decoration="none" transform="matrix(1 0 0 1 462.887 1763)">products, it is ensured that the traceability solutions comply with Catena</text><text fill="#000000" fill-opacity="1" font-family="Verdana,Verdana_MSFontService,sans-serif" font-style="normal" font-variant="normal" font-weight="400" font-stretch="normal" font-size="55" text-anchor="start" direction="ltr" writing-mode="lr-tb" unicode-bidi="normal" text-decoration="none" transform="matrix(1 0 0 1 2478.89 1763)">-</text><text fill="#000000" fill-opacity="1" font-family="Verdana,Verdana_MSFontService,sans-serif" font-style="normal" font-variant="normal" font-weight="400" font-stretch="normal" font-size="55" text-anchor="start" direction="ltr" writing-mode="lr-tb" unicode-bidi="normal" text-decoration="none" transform="matrix(1 0 0 1 2501.94 1763)">X standards and are therefore compatible with each ot</text><text fill="#000000" fill-opacity="1" font-family="Verdana,Verdana_MSFontService,sans-serif" font-style="normal" font-variant="normal" font-weight="400" font-stretch="normal" font-size="55" text-anchor="start" direction="ltr" writing-mode="lr-tb" unicode-bidi="normal" text-decoration="none" transform="matrix(1 0 0 1 4017.31 1763)">her. This </text><text fill="#000000" fill-opacity="1" font-family="Verdana,Verdana_MSFontService,sans-serif" font-style="normal" font-variant="normal" font-weight="400" font-stretch="normal" font-size="55" text-anchor="start" direction="ltr" writing-mode="lr-tb" unicode-bidi="normal" text-decoration="none" transform="matrix(1 0 0 1 462.887 1829)">means there is no obligation in using a specific product (no lock</text><text fill="#000000" fill-opacity="1" font-family="Verdana,Verdana_MSFontService,sans-serif" font-style="normal" font-variant="normal" font-weight="400" font-stretch="normal" font-size="55" text-anchor="start" direction="ltr" writing-mode="lr-tb" unicode-bidi="normal" text-decoration="none" transform="matrix(1 0 0 1 2231.09 1829)">-</text><text fill="#000000" fill-opacity="1" font-family="Verdana,Verdana_MSFontService,sans-serif" font-style="normal" font-variant="normal" font-weight="400" font-stretch="normal" font-size="55" text-anchor="start" direction="ltr" writing-mode="lr-tb" unicode-bidi="normal" text-decoration="none" transform="matrix(1 0 0 1 2256.3 1829)">in effects). The solution space ranges from self</text><text fill="#000000" fill-opacity="1" font-family="Verdana,Verdana_MSFontService,sans-serif" font-style="normal" font-variant="normal" font-weight="400" font-stretch="normal" font-size="55" text-anchor="start" direction="ltr" writing-mode="lr-tb" unicode-bidi="normal" text-decoration="none" transform="matrix(1 0 0 1 3556.8 1829)">-</text><text fill="#000000" fill-opacity="1" font-family="Verdana,Verdana_MSFontService,sans-serif" font-style="normal" font-variant="normal" font-weight="400" font-stretch="normal" font-size="55" text-anchor="start" direction="ltr" writing-mode="lr-tb" unicode-bidi="normal" text-decoration="none" transform="matrix(1 0 0 1 3582.01 1829)">developed sol</text><text fill="#000000" fill-opacity="1" font-family="Verdana,Verdana_MSFontService,sans-serif" font-style="normal" font-variant="normal" font-weight="400" font-stretch="normal" font-size="55" text-anchor="start" direction="ltr" writing-mode="lr-tb" unicode-bidi="normal" text-decoration="none" transform="matrix(1 0 0 1 3959.65 1829)">utions to </text><text fill="#000000" fill-opacity="1" font-family="Verdana,Verdana_MSFontService,sans-serif" font-style="normal" font-variant="normal" font-weight="400" font-stretch="normal" font-size="55" text-anchor="start" direction="ltr" writing-mode="lr-tb" unicode-bidi="normal" text-decoration="none" transform="matrix(1 0 0 1 462.887 1895)">open source solutions and commercial products. </text><text fill="#000000" fill-opacity="1" font-family="Arial,Arial_MSFontService,sans-serif" font-style="normal" font-variant="normal" font-weight="400" font-stretch="normal" font-size="55" text-anchor="start" direction="ltr" writing-mode="lr-tb" unicode-bidi="normal" text-decoration="none" transform="matrix(1 0 0 1 359.762 1988)">•</text><text fill="#000000" fill-opacity="1" font-family="Verdana,Verdana_MSFontService,sans-serif" font-style="normal" font-variant="normal" font-weight="400" font-stretch="normal" font-size="55" text-anchor="start" direction="ltr" writing-mode="lr-tb" unicode-bidi="normal" text-decoration="none" transform="matrix(1 0 0 1 462.887 1988)">For the respective use cases, it is ensured that there is a basic application (based on open source) that allows everyone to </text><text fill="#000000" fill-opacity="1" font-family="Verdana,Verdana_MSFontService,sans-serif" font-style="normal" font-variant="normal" font-weight="400" font-stretch="normal" font-size="55" text-anchor="start" direction="ltr" writing-mode="lr-tb" unicode-bidi="normal" text-decoration="none" transform="matrix(1 0 0 1 3881.55 1988)">par</text><text fill="#000000" fill-opacity="1" font-family="Verdana,Verdana_MSFontService,sans-serif" font-style="normal" font-variant="normal" font-weight="400" font-stretch="normal" font-size="55" text-anchor="start" direction="ltr" writing-mode="lr-tb" unicode-bidi="normal" text-decoration="none" transform="matrix(1 0 0 1 3972.64 1988)">ticipate </text><text fill="#000000" fill-opacity="1" font-family="Verdana,Verdana_MSFontService,sans-serif" font-style="normal" font-variant="normal" font-weight="400" font-stretch="normal" font-size="55" text-anchor="start" direction="ltr" writing-mode="lr-tb" unicode-bidi="normal" text-decoration="none" transform="matrix(1 0 0 1 462.887 2054)">with minimal effort (e.g. data provision via (.csv) file upload.) </text><g clip-path="url(#clip1)"><g clip-path="url(#clip2)"><g clip-path="url(#clip3)"><path d="M113.5 47.2916C116.101 47.2916 118.229 49.4198 118.229 52.0208 118.229 54.6218 116.101 56.75 113.5 56.75 110.899 56.75 108.771 54.6218 108.771 52.0208 108.771 49.4198 110.899 47.2916 113.5 47.2916ZM141.875 189.167C141.875 186.566 139.747 184.437 137.146 184.437L120.594 184.437 120.594 64.3166C122.722 63.1343 124.613 61.2427 125.796 59.1146L171.196 59.1146 157.954 127.687 167.649 127.687 178.053 73.775 191.295 127.687 200.989 127.687 183.728 59.1146 186.802 59.1146C190.822 59.1146 193.896 56.0406 193.896 52.0208 193.896 48.001 190.822 44.9271 186.802 44.9271L125.796 44.9271C124.613 42.7989 122.722 40.9073 120.594 39.725L120.594 26.0104C120.594 21.9906 117.52 18.9167 113.5 18.9167 109.48 18.9167 106.406 21.9906 106.406 26.0104L106.406 39.725C104.278 40.9073 102.386 42.7989 101.204 44.9271L40.1979 44.9271C36.1781 44.9271 33.1041 48.001 33.1041 52.0208 33.1041 55.3312 35.4687 58.4052 38.7791 58.8781L25.301 127.687 34.9958 127.687 45.4 73.775 58.8781 127.687 68.5729 127.687 51.3114 59.1146 100.968 59.1146C102.15 61.2427 104.042 63.1343 106.17 64.3166L106.17 184.437 89.6177 184.437C87.0166 184.437 84.8885 186.566 84.8885 189.167L84.8885 193.896 56.75 193.896 56.75 208.083 170.25 208.083 170.25 193.896 141.875 193.896 141.875 189.167Z" fill="#015970" fill-rule="nonzero" fill-opacity="1" transform="matrix(1 0 0 1.00441 35.0001 882)"/><path d="M75.6666 134.781 18.9167 134.781C18.9167 142.584 31.6854 148.969 47.2916 148.969 62.8979 148.969 75.6666 142.584 75.6666 134.781Z" fill="#015970" fill-rule="nonzero" fill-opacity="1" transform="matrix(1 0 0 1.00441 35.0001 882)"/><path d="M151.333 134.781C151.333 142.584 164.102 148.969 179.708 148.969 195.314 148.969 208.083 142.584 208.083 134.781L151.333 134.781Z" fill="#015970" fill-rule="nonzero" fill-opacity="1" transform="matrix(1 0 0 1.00441 35.0001 882)"/></g></g></g><g clip-path="url(#clip4)"><g clip-path="url(#clip5)"><g clip-path="url(#clip6)"><path d="M132.677 55.4967C151.006 61.2559 165.588 75.2526 172.094 93.3301L164.811 89.0029C162.661 87.5205 159.716 88.0622 158.234 90.2126 156.751 92.3632 157.293 95.308 159.444 96.7904 159.646 96.9304 159.86 97.054 160.082 97.1607L176.634 106.974C177.473 107.646 178.515 108.013 179.59 108.014L179.708 108.014 180.087 108.014 180.276 108.014 180.654 108.014C181.866 107.699 182.903 106.917 183.539 105.839L193.896 88.4117C195.025 86.0568 194.032 83.2321 191.677 82.1025 189.578 81.0959 187.059 81.7661 185.738 83.6826L181.363 91.131C175.897 75.1585 164.903 61.6652 150.364 53.0849 145.672 50.3235 140.682 48.1025 135.491 46.464 132.996 45.687 130.344 47.0791 129.567 49.5735 128.79 52.0679 130.182 54.7197 132.677 55.4967Z" fill="#015970" fill-rule="nonzero" fill-opacity="1" transform="matrix(1 0 0 1.00441 35.0001 1509)"/><path d="M45.2581 130.43C45.7632 132.567 47.673 134.076 49.869 134.072 50.236 134.07 50.6013 134.022 50.9567 133.93 53.4563 133.29 54.982 130.765 54.3854 128.255 50.7806 112.789 53.3242 96.5284 61.4791 82.9023 63.3675 79.7058 65.5358 76.6829 67.9581 73.8695L68.1 74.0114 68.1 82.6658C68.1 85.2777 70.2172 87.395 72.8291 87.395 75.441 87.395 77.5583 85.2777 77.5583 82.6658L77.7475 62.6141C77.7475 60.0022 75.6302 57.885 73.0183 57.885L52.943 57.6958C50.3311 57.6958 48.2138 59.813 48.2138 62.425 48.2138 65.0369 50.3311 67.1541 52.943 67.1541L61.3373 67.1541C58.2869 70.5135 55.5634 74.1557 53.2031 78.0312 43.8464 93.8016 40.9969 112.595 45.2581 130.43Z" fill="#015970" fill-rule="nonzero" fill-opacity="1" transform="matrix(1 0 0 1.00441 35.0001 1509)"/><path d="M156.583 158.782C142.208 172.343 122.204 178.19 102.788 174.506L102.788 174.506 110.308 170.25C112.573 168.944 113.352 166.049 112.046 163.783 110.74 161.517 107.844 160.739 105.579 162.045L88.1989 171.905C85.9275 173.195 85.1316 176.081 86.421 178.353 86.4224 178.355 86.4241 178.358 86.4255 178.36L96.3804 195.787C97.6863 198.06 100.587 198.843 102.859 197.537 105.132 196.231 105.915 193.331 104.609 191.058L100.377 183.681C122.992 188.233 146.408 181.503 163.156 165.639 165.124 163.922 165.328 160.934 163.611 158.966 161.894 156.998 158.906 156.795 156.938 158.512 156.84 158.598 156.745 158.688 156.654 158.782Z" fill="#015970" fill-rule="nonzero" fill-opacity="1" transform="matrix(1 0 0 1.00441 35.0001 1509)"/><path d="M80.3958 155.211C80.3958 165.659 71.9265 174.128 61.4791 174.128 51.0318 174.128 42.5625 165.659 42.5625 155.211 42.5625 144.764 51.0318 136.295 61.4791 136.295 71.9265 136.295 80.3958 144.764 80.3958 155.211Z" fill="#015970" fill-rule="nonzero" fill-opacity="1" transform="matrix(1 0 0 1.00441 35.0001 1509)"/><path d="M195.078 139.037C195.078 149.485 186.609 157.954 176.161 157.954 165.714 157.954 157.245 149.485 157.245 139.037 157.245 128.59 165.714 120.121 176.161 120.121 186.609 120.121 195.078 128.59 195.078 139.037Z" fill="#015970" fill-rule="nonzero" fill-opacity="1" transform="matrix(1 0 0 1.00441 35.0001 1509)"/><path d="M124.732 48.734C124.732 59.1814 116.262 67.6507 105.815 67.6507 95.3677 67.6507 86.8984 59.1814 86.8984 48.734 86.8984 38.2867 95.3677 29.8174 105.815 29.8174 116.262 29.8174 124.732 38.2867 124.732 48.734Z" fill="#015970" fill-rule="nonzero" fill-opacity="1" transform="matrix(1 0 0 1.00441 35.0001 1509)"/></g></g></g><g clip-path="url(#clip7)"><g clip-path="url(#clip8)"><g clip-path="url(#clip9)"><path d="M95.0562 154.407C91.7458 154.407 88.6718 153.698 85.5979 152.516 80.6322 150.624 76.376 147.077 73.302 142.584 73.0656 142.584 72.5927 142.348 72.3562 142.348L43.9812 198.152 67.8635 192.713 79.9229 215.177 109.48 157.481C106.17 157.008 102.859 155.59 100.022 153.934 98.3666 154.171 96.7114 154.407 95.0562 154.407Z" fill="#015970" fill-rule="nonzero" fill-opacity="1" transform="matrix(1 0 0 1.00441 35.0001 367)"/><path d="M144.476 151.333C141.166 152.752 137.619 153.461 134.072 153.461 132.18 153.461 130.525 153.225 128.633 152.988 125.086 155.353 121.067 157.008 116.81 157.481L148.023 213.758 160.319 193.659 184.437 197.679 154.407 143.767C151.806 147.077 148.496 149.678 144.476 151.333Z" fill="#015970" fill-rule="nonzero" fill-opacity="1" transform="matrix(1 0 0 1.00441 35.0001 367)"/><path d="M112.791 122.012C90.327 122.012 71.8833 103.805 71.8833 81.1052 71.8833 58.4052 90.327 40.1979 112.791 40.1979 135.254 40.1979 153.698 58.4052 153.698 81.1052 153.698 103.805 135.254 122.012 112.791 122.012ZM182.546 81.1052C182.546 75.9031 180.418 71.1739 176.871 67.8635 178.762 63.3708 178.999 58.1687 176.871 53.4396 174.979 49.1833 171.669 45.8729 167.649 44.2177 167.412 39.9614 165.757 35.7052 162.447 32.3948 158.663 28.6114 153.934 26.9562 148.969 27.1927 147.313 22.7 143.767 18.9167 138.801 17.025 134.545 15.3698 129.816 15.3698 125.796 17.025 122.485 14.1875 118.466 12.2958 113.736 12.2958 108.534 12.2958 103.805 14.424 100.495 17.9708 96.002 16.0792 90.8 15.8427 86.0708 17.9708 81.8145 19.8625 78.5041 23.1729 76.8489 27.1927 72.5927 27.4292 68.3364 29.0844 65.026 32.3948 61.2427 36.1781 59.5875 40.9073 59.8239 45.8729 55.3312 47.5281 51.5479 51.075 49.6562 56.0406 48.001 60.2968 48.001 65.026 49.6562 69.0458 46.8187 72.3562 44.9271 76.376 44.9271 81.1052 44.9271 86.3072 47.0552 91.0364 50.6021 94.3468 48.7104 98.8395 48.4739 104.042 50.6021 108.771 52.4937 113.027 55.8041 116.337 59.8239 117.993 60.0604 122.249 61.7156 126.505 65.026 129.816 68.8093 133.599 73.5385 135.254 78.5041 135.018 80.1593 139.51 83.7062 143.294 88.6718 145.185 92.9281 146.841 97.6572 146.841 101.677 145.185 104.987 148.023 109.007 149.915 113.736 149.915 118.938 149.915 123.668 147.786 126.978 144.24 131.471 146.131 136.673 146.368 141.402 144.24 145.658 142.348 148.969 139.037 150.624 135.018 154.88 134.781 159.136 133.126 162.447 129.816 166.23 126.032 167.885 121.303 167.649 116.337 172.142 114.682 175.925 111.135 177.817 106.17 179.472 101.913 179.472 97.1843 177.817 93.1645 180.654 90.0906 182.546 85.8343 182.546 81.1052Z" fill="#015970" fill-rule="nonzero" fill-opacity="1" transform="matrix(1 0 0 1.00441 35.0001 367)"/></g></g></g></g></svg>