<svg width="4400" height="1801" xmlns="http://www.w3.org/2000/svg" xmlns:xlink="http://www.w3.org/1999/xlink" xml:space="preserve" overflow="hidden"><defs><clipPath id="clip0"><rect x="0" y="412" width="4400" height="1801"/></clipPath><clipPath id="clip1"><rect x="287" y="454" width="94" height="93"/></clipPath><clipPath id="clip2"><rect x="287" y="454" width="94" height="93"/></clipPath><clipPath id="clip3"><rect x="287" y="454" width="94" height="93"/></clipPath><clipPath id="clip4"><rect x="287" y="1283" width="94" height="96"/></clipPath><clipPath id="clip5"><rect x="287" y="1283" width="94" height="96"/></clipPath><clipPath id="clip6"><rect x="287" y="1283" width="94" height="96"/></clipPath></defs><g clip-path="url(#clip0)" transform="matrix(1 0 0 1 0 -412)"><path d="M0 460.407C-8.75279e-15 434.225 21.2248 413 47.4068 413L4352.59 413C4378.78 413 4400 434.225 4400 460.407L4400 2162.59C4400 2188.78 4378.78 2210 4352.59 2210L47.4068 2210C21.2248 2210 0 2188.78 0 2162.59Z" fill="#035970" fill-rule="evenodd" fill-opacity="1"/><text fill="#FFFFFF" fill-opacity="1" font-family="BMWGroupTN Condensed,BMWGroupTN Condensed_MSFontService,sans-serif" font-style="normal" font-variant="normal" font-weight="700" font-stretch="normal" font-size="55" text-anchor="start" direction="ltr" writing-mode="lr-tb" unicode-bidi="normal" text-decoration="none" transform="matrix(1 0 0 1 338.69 673)">Describes the condition of a component, vehicle after assembly in the respective plant. Each individual part or batch is repr</text><text fill="#FFFFFF" fill-opacity="1" font-family="BMWGroupTN Condensed,BMWGroupTN Condensed_MSFontService,sans-serif" font-style="normal" font-variant="normal" font-weight="700" font-stretch="normal" font-size="55" text-anchor="start" direction="ltr" writing-mode="lr-tb" unicode-bidi="normal" text-decoration="none" transform="matrix(1 0 0 1 3059.47 673)">ese</text><text fill="#FFFFFF" fill-opacity="1" font-family="BMWGroupTN Condensed,BMWGroupTN Condensed_MSFontService,sans-serif" font-style="normal" font-variant="normal" font-weight="700" font-stretch="normal" font-size="55" text-anchor="start" direction="ltr" writing-mode="lr-tb" unicode-bidi="normal" text-decoration="none" transform="matrix(1 0 0 1 3137.96 673)">nted as a digital twin</text><text fill="#FFFFFF" fill-opacity="1" font-family="BMWGroupTN Condensed,BMWGroupTN Condensed_MSFontService,sans-serif" font-style="normal" font-variant="normal" font-weight="700" font-stretch="normal" font-size="55" text-anchor="start" direction="ltr" writing-mode="lr-tb" unicode-bidi="normal" text-decoration="none" transform="matrix(1 0 0 1 3606.61 673)">.</text><text fill="#FFFFFF" fill-opacity="1" font-family="Symbol,Symbol_MSFontService,sans-serif" font-style="normal" font-variant="normal" font-weight="400" font-stretch="normal" font-size="37" text-anchor="start" direction="ltr" writing-mode="lr-tb" unicode-bidi="normal" text-decoration="none" transform="matrix(1 0 0 1 503.69 795)"></text><text fill="#FFFFFF" fill-opacity="1" font-family="BMWGroupTN Condensed,BMWGroupTN Condensed_MSFontService,sans-serif" font-style="normal" font-variant="normal" font-weight="400" font-stretch="normal" font-size="50" text-anchor="start" direction="ltr" writing-mode="lr-tb" unicode-bidi="normal" text-decoration="none" transform="matrix(1 0 0 1 1328.69 795)">Represents the master data of a component with its own serial number after the assembly process. </text><text fill="#FFFFFF" fill-opacity="1" font-family="BMWGroupTN Condensed,BMWGroupTN Condensed_MSFontService,sans-serif" font-style="normal" font-variant="normal" font-weight="400" font-stretch="normal" font-size="50" text-anchor="start" direction="ltr" writing-mode="lr-tb" unicode-bidi="normal" text-decoration="none" transform="matrix(1 0 0 1 1328.69 855)">Relevant for manufacturers of serialized individual parts or vehicle manufacturers.</text><text fill="#FFFFFF" fill-opacity="1" font-family="Symbol,Symbol_MSFontService,sans-serif" font-style="normal" font-variant="normal" font-weight="400" font-stretch="normal" font-size="50" text-anchor="start" direction="ltr" writing-mode="lr-tb" unicode-bidi="normal" text-decoration="none" transform="matrix(1 0 0 1 503.69 943)"></text><text fill="#FFFFFF" fill-opacity="1" font-family="BMWGroupTN Condensed,BMWGroupTN Condensed_MSFontService,sans-serif" font-style="normal" font-variant="normal" font-weight="400" font-stretch="normal" font-size="50" text-anchor="start" direction="ltr" writing-mode="lr-tb" unicode-bidi="normal" text-decoration="none" transform="matrix(1 0 0 1 1328.69 943)">Represents the master data of a batch after the assembly process. Relevant for manufacturers of components with large batches</text><text fill="#FFFFFF" fill-opacity="1" font-family="BMWGroupTN Condensed,BMWGroupTN Condensed_MSFontService,sans-serif" font-style="normal" font-variant="normal" font-weight="400" font-stretch="normal" font-size="50" text-anchor="start" direction="ltr" writing-mode="lr-tb" unicode-bidi="normal" text-decoration="none" transform="matrix(1 0 0 1 3837.49 943)">, w</text><text fill="#FFFFFF" fill-opacity="1" font-family="BMWGroupTN Condensed,BMWGroupTN Condensed_MSFontService,sans-serif" font-style="normal" font-variant="normal" font-weight="400" font-stretch="normal" font-size="50" text-anchor="start" direction="ltr" writing-mode="lr-tb" unicode-bidi="normal" text-decoration="none" transform="matrix(1 0 0 1 3893.64 943)">hich are </text><text fill="#FFFFFF" fill-opacity="1" font-family="BMWGroupTN Condensed,BMWGroupTN Condensed_MSFontService,sans-serif" font-style="normal" font-variant="normal" font-weight="400" font-stretch="normal" font-size="50" text-anchor="start" direction="ltr" writing-mode="lr-tb" unicode-bidi="normal" text-decoration="none" transform="matrix(1 0 0 1 1328.69 1004)">produced under the same manufacturing conditions and bundled in a batch number.</text><text fill="#FFFFFF" fill-opacity="1" font-family="Symbol,Symbol_MSFontService,sans-serif" font-style="normal" font-variant="normal" font-weight="400" font-stretch="normal" font-size="50" text-anchor="start" direction="ltr" writing-mode="lr-tb" unicode-bidi="normal" text-decoration="none" transform="matrix(1 0 0 1 503.69 1092)"></text><text fill="#FFFFFF" fill-opacity="1" font-family="BMWGroupTN Condensed,BMWGroupTN Condensed_MSFontService,sans-serif" font-style="normal" font-variant="normal" font-weight="400" font-stretch="normal" font-size="50" text-anchor="start" direction="ltr" writing-mode="lr-tb" unicode-bidi="normal" text-decoration="none" transform="matrix(1 0 0 1 1328.69 1092)">Represents the relationship between the components after the assembly process. For example, which batch (gear wheel, raw mate</text><text fill="#FFFFFF" fill-opacity="1" font-family="BMWGroupTN Condensed,BMWGroupTN Condensed_MSFontService,sans-serif" font-style="normal" font-variant="normal" font-weight="400" font-stretch="normal" font-size="50" text-anchor="start" direction="ltr" writing-mode="lr-tb" unicode-bidi="normal" text-decoration="none" transform="matrix(1 0 0 1 3878.17 1092)">ria</text><text fill="#FFFFFF" fill-opacity="1" font-family="BMWGroupTN Condensed,BMWGroupTN Condensed_MSFontService,sans-serif" font-style="normal" font-variant="normal" font-weight="400" font-stretch="normal" font-size="50" text-anchor="start" direction="ltr" writing-mode="lr-tb" unicode-bidi="normal" text-decoration="none" transform="matrix(1 0 0 1 3929.16 1092)">l) is installed </text><text fill="#FFFFFF" fill-opacity="1" font-family="BMWGroupTN Condensed,BMWGroupTN Condensed_MSFontService,sans-serif" font-style="normal" font-variant="normal" font-weight="400" font-stretch="normal" font-size="50" text-anchor="start" direction="ltr" writing-mode="lr-tb" unicode-bidi="normal" text-decoration="none" transform="matrix(1 0 0 1 1328.69 1152)">in which serialized part (transmission) in which vehicle.</text><text fill="#FFFFFF" fill-opacity="1" font-family="BMWGroupTN Condensed,BMWGroupTN Condensed_MSFontService,sans-serif" font-style="normal" font-variant="normal" font-weight="700" font-stretch="normal" font-size="55" text-anchor="start" direction="ltr" writing-mode="lr-tb" unicode-bidi="normal" text-decoration="none" transform="matrix(1 0 0 1 338.69 1470)">Describes the condition of a component or vehicle when the delivery relationship between supplier and customer is contractual</text><text fill="#FFFFFF" fill-opacity="1" font-family="BMWGroupTN Condensed,BMWGroupTN Condensed_MSFontService,sans-serif" font-style="normal" font-variant="normal" font-weight="700" font-stretch="normal" font-size="55" text-anchor="start" direction="ltr" writing-mode="lr-tb" unicode-bidi="normal" text-decoration="none" transform="matrix(1 0 0 1 3152.86 1470)">ly </text><text fill="#FFFFFF" fill-opacity="1" font-family="BMWGroupTN Condensed,BMWGroupTN Condensed_MSFontService,sans-serif" font-style="normal" font-variant="normal" font-weight="700" font-stretch="normal" font-size="55" text-anchor="start" direction="ltr" writing-mode="lr-tb" unicode-bidi="normal" text-decoration="none" transform="matrix(1 0 0 1 3204.42 1470)">defined.</text><text fill="#FFFFFF" fill-opacity="1" font-family="Symbol,Symbol_MSFontService,sans-serif" font-style="normal" font-variant="normal" font-weight="400" font-stretch="normal" font-size="50" text-anchor="start" direction="ltr" writing-mode="lr-tb" unicode-bidi="normal" text-decoration="none" transform="matrix(1 0 0 1 503.69 1598)"></text><text fill="#FFFFFF" fill-opacity="1" font-family="BMWGroupTN Condensed,BMWGroupTN Condensed_MSFontService,sans-serif" font-style="normal" font-variant="normal" font-weight="400" font-stretch="normal" font-size="50" text-anchor="start" direction="ltr" writing-mode="lr-tb" unicode-bidi="normal" text-decoration="none" transform="matrix(1 0 0 1 1328.69 1598)">Represents the master data of a component in the “as planned” life cycle.</text><text fill="#FFFFFF" fill-opacity="1" font-family="Symbol,Symbol_MSFontService,sans-serif" font-style="normal" font-variant="normal" font-weight="400" font-stretch="normal" font-size="50" text-anchor="start" direction="ltr" writing-mode="lr-tb" unicode-bidi="normal" text-decoration="none" transform="matrix(1 0 0 1 503.69 1719)"></text><text fill="#FFFFFF" fill-opacity="1" font-family="BMWGroupTN Condensed,BMWGroupTN Condensed_MSFontService,sans-serif" font-style="normal" font-variant="normal" font-weight="400" font-stretch="normal" font-size="50" text-anchor="start" direction="ltr" writing-mode="lr-tb" unicode-bidi="normal" text-decoration="none" transform="matrix(1 0 0 1 1328.69 1719)">Represents the first level of an assembly or assembly without further sub</text><text fill="#FFFFFF" fill-opacity="1" font-family="BMWGroupTN Condensed,BMWGroupTN Condensed_MSFontService,sans-serif" font-style="normal" font-variant="normal" font-weight="400" font-stretch="normal" font-size="50" text-anchor="start" direction="ltr" writing-mode="lr-tb" unicode-bidi="normal" text-decoration="none" transform="matrix(1 0 0 1 2751.24 1719)">-</text><text fill="#FFFFFF" fill-opacity="1" font-family="BMWGroupTN Condensed,BMWGroupTN Condensed_MSFontService,sans-serif" font-style="normal" font-variant="normal" font-weight="400" font-stretch="normal" font-size="50" text-anchor="start" direction="ltr" writing-mode="lr-tb" unicode-bidi="normal" text-decoration="none" transform="matrix(1 0 0 1 2769.57 1719)">assemblies from a lower level. </text><text fill="#FFFFFF" fill-opacity="1" font-family="BMWGroupTN Condensed,BMWGroupTN Condensed_MSFontService,sans-serif" font-style="normal" font-variant="normal" font-weight="400" font-stretch="normal" font-size="50" text-anchor="start" direction="ltr" writing-mode="lr-tb" unicode-bidi="normal" text-decoration="none" transform="matrix(1 0 0 1 1328.69 1779)">The “as planned” life cycle covers the entire variance of potential vehicles (also known as a 120% parts list).</text><text fill="#FFFFFF" fill-opacity="1" font-family="Symbol,Symbol_MSFontService,sans-serif" font-style="normal" font-variant="normal" font-weight="400" font-stretch="normal" font-size="50" text-anchor="start" direction="ltr" writing-mode="lr-tb" unicode-bidi="normal" text-decoration="none" transform="matrix(1 0 0 1 503.69 1889)"></text><text fill="#FFFFFF" fill-opacity="1" font-family="BMWGroupTN Condensed,BMWGroupTN Condensed_MSFontService,sans-serif" font-style="normal" font-variant="normal" font-weight="400" font-stretch="normal" font-size="50" text-anchor="start" direction="ltr" writing-mode="lr-tb" unicode-bidi="normal" text-decoration="none" transform="matrix(1 0 0 1 1328.69 1889)">Provides location</text><text fill="#FFFFFF" fill-opacity="1" font-family="BMWGroupTN Condensed,BMWGroupTN Condensed_MSFontService,sans-serif" font-style="normal" font-variant="normal" font-weight="400" font-stretch="normal" font-size="50" text-anchor="start" direction="ltr" writing-mode="lr-tb" unicode-bidi="normal" text-decoration="none" transform="matrix(1 0 0 1 1665.56 1889)">-</text><text fill="#FFFFFF" fill-opacity="1" font-family="BMWGroupTN Condensed,BMWGroupTN Condensed_MSFontService,sans-serif" font-style="normal" font-variant="normal" font-weight="400" font-stretch="normal" font-size="50" text-anchor="start" direction="ltr" writing-mode="lr-tb" unicode-bidi="normal" text-decoration="none" transform="matrix(1 0 0 1 1683.9 1889)">based information for a planned component. </text><text fill="#FFFFFF" fill-opacity="1" font-family="BMWGroupTN Condensed,BMWGroupTN Condensed_MSFontService,sans-serif" font-style="normal" font-variant="normal" font-weight="400" font-stretch="normal" font-size="50" text-anchor="start" direction="ltr" writing-mode="lr-tb" unicode-bidi="normal" text-decoration="none" transform="matrix(1 0 0 1 1328.69 1950)">In this context, a location is a defined geographical area in which a company does business.</text><text fill="#FFFFFF" fill-opacity="1" font-family="Symbol,Symbol_MSFontService,sans-serif" font-style="normal" font-variant="normal" font-weight="400" font-stretch="normal" font-size="50" text-anchor="start" direction="ltr" writing-mode="lr-tb" unicode-bidi="normal" text-decoration="none" transform="matrix(1 0 0 1 503.69 2038)"></text><text fill="#FFFFFF" fill-opacity="1" font-family="BMWGroupTN Condensed,BMWGroupTN Condensed_MSFontService,sans-serif" font-style="normal" font-variant="normal" font-weight="400" font-stretch="normal" font-size="50" text-anchor="start" direction="ltr" writing-mode="lr-tb" unicode-bidi="normal" text-decoration="none" transform="matrix(1 0 0 1 1328.69 2038)">Establishes the relationship between a component and its superordinate parts during the “as planned” life cycle.</text><path d="M443 752.167C443 740.477 452.477 731 464.167 731L1257.83 731C1269.52 731 1279 740.477 1279 752.167L1279 836.834C1279 848.524 1269.52 858.001 1257.83 858.001L464.167 858.001C452.477 858.001 443 848.524 443 836.834Z" fill="#85ACB9" fill-rule="evenodd" fill-opacity="1"/><text fill="#FFFFFF" fill-opacity="1" font-family="BMWGroupTN Condensed,BMWGroupTN Condensed_MSFontService,sans-serif" font-style="normal" font-variant="normal" font-weight="400" font-stretch="normal" font-size="55" text-anchor="start" direction="ltr" writing-mode="lr-tb" unicode-bidi="normal" text-decoration="none" transform="matrix(1 0 0 1 640.804 813)">SerialPartTypization</text><path d="M443 908.167C443 896.477 452.477 887 464.167 887L1257.83 887C1269.52 887 1279 896.477 1279 908.167L1279 992.833C1279 1004.52 1269.52 1014 1257.83 1014L464.167 1014C452.477 1014 443 1004.52 443 992.833Z" fill="#85ACB9" fill-rule="evenodd" fill-opacity="1"/><text fill="#FFFFFF" fill-opacity="1" font-family="BMWGroupTN Condensed,BMWGroupTN Condensed_MSFontService,sans-serif" font-style="normal" font-variant="normal" font-weight="400" font-stretch="normal" font-size="55" text-anchor="start" direction="ltr" writing-mode="lr-tb" unicode-bidi="normal" text-decoration="none" transform="matrix(1 0 0 1 798.07 969)">Batch</text><path d="M443 1064.17C443 1052.48 452.477 1043 464.167 1043L1257.83 1043C1269.52 1043 1279 1052.48 1279 1064.17L1279 1148.83C1279 1160.52 1269.52 1170 1257.83 1170L464.167 1170C452.477 1170 443 1160.52 443 1148.83Z" fill="#85ACB9" fill-rule="evenodd" fill-opacity="1"/><text fill="#FFFFFF" fill-opacity="1" font-family="BMWGroupTN Condensed,BMWGroupTN Condensed_MSFontService,sans-serif" font-style="normal" font-variant="normal" font-weight="400" font-stretch="normal" font-size="55" text-anchor="start" direction="ltr" writing-mode="lr-tb" unicode-bidi="normal" text-decoration="none" transform="matrix(1 0 0 1 576.924 1125)">AssemblyPartRelationship</text><path d="M443 1534.17C443 1522.48 452.477 1513 464.167 1513L1257.83 1513C1269.52 1513 1279 1522.48 1279 1534.17L1279 1618.83C1279 1630.52 1269.52 1640 1257.83 1640L464.167 1640C452.477 1640 443 1630.52 443 1618.83Z" fill="#85ACB9" fill-rule="evenodd" fill-opacity="1"/><text fill="#FFFFFF" fill-opacity="1" font-family="BMWGroupTN Condensed,BMWGroupTN Condensed_MSFontService,sans-serif" font-style="normal" font-variant="normal" font-weight="400" font-stretch="normal" font-size="55" text-anchor="start" direction="ltr" writing-mode="lr-tb" unicode-bidi="normal" text-decoration="none" transform="matrix(1 0 0 1 699.815 1595)">PartAsPlanned</text><path d="M443 1691C443 1679.4 452.402 1670 464.001 1670L1258 1670C1269.6 1670 1279 1679.4 1279 1691L1279 1775C1279 1786.6 1269.6 1796 1258 1796L464.001 1796C452.402 1796 443 1786.6 443 1775Z" fill="#85ACB9" fill-rule="evenodd" fill-opacity="1"/><text fill="#FFFFFF" fill-opacity="1" font-family="BMWGroupTN Condensed,BMWGroupTN Condensed_MSFontService,sans-serif" font-style="normal" font-variant="normal" font-weight="400" font-stretch="normal" font-size="55" text-anchor="start" direction="ltr" writing-mode="lr-tb" unicode-bidi="normal" text-decoration="none" transform="matrix(1 0 0 1 571.768 1752)">SingleLevelBoMAsPlanned</text><path d="M443 1847.17C443 1835.48 452.477 1826 464.167 1826L1257.83 1826C1269.52 1826 1279 1835.48 1279 1847.17L1279 1931.83C1279 1943.52 1269.52 1953 1257.83 1953L464.167 1953C452.477 1953 443 1943.52 443 1931.83Z" fill="#85ACB9" fill-rule="evenodd" fill-opacity="1"/><text fill="#FFFFFF" fill-opacity="1" font-family="BMWGroupTN Condensed,BMWGroupTN Condensed_MSFontService,sans-serif" font-style="normal" font-variant="normal" font-weight="400" font-stretch="normal" font-size="55" text-anchor="start" direction="ltr" writing-mode="lr-tb" unicode-bidi="normal" text-decoration="none" transform="matrix(1 0 0 1 533.955 1909)">PartSiteInformationAsPlanned</text><path d="M443 2004.17C443 1992.48 452.477 1983 464.167 1983L1257.83 1983C1269.52 1983 1279 1992.48 1279 2004.17L1279 2088.83C1279 2100.52 1269.52 2110 1257.83 2110L464.167 2110C452.477 2110 443 2100.52 443 2088.83Z" fill="#85ACB9" fill-rule="evenodd" fill-opacity="1"/><text fill="#FFFFFF" fill-opacity="1" font-family="BMWGroupTN Condensed,BMWGroupTN Condensed_MSFontService,sans-serif" font-style="normal" font-variant="normal" font-weight="400" font-stretch="normal" font-size="55" text-anchor="start" direction="ltr" writing-mode="lr-tb" unicode-bidi="normal" text-decoration="none" transform="matrix(1 0 0 1 553.435 2065)">S</text><text fill="#FFFFFF" fill-opacity="1" font-family="BMWGroupTN Condensed,BMWGroupTN Condensed_MSFontService,sans-serif" font-style="normal" font-variant="normal" font-weight="400" font-stretch="normal" font-size="55" text-anchor="start" direction="ltr" writing-mode="lr-tb" unicode-bidi="normal" text-decoration="none" transform="matrix(1 0 0 1 583.226 2065)">ingleLevelUsageAsPlanned</text><rect x="176.5" y="523.5" width="4104" height="727" stroke="#FFFFFF" stroke-width="6.875" stroke-linecap="butt" stroke-linejoin="miter" stroke-miterlimit="8" stroke-opacity="1" fill="none"/><rect x="260.5" y="448.5" width="835" height="107" stroke="#FFFFFF" stroke-width="6.875" stroke-linecap="butt" stroke-linejoin="miter" stroke-miterlimit="8" stroke-opacity="1" fill="#035970" fill-opacity="1"/><text fill="#FFFFFF" fill-opacity="1" font-family="BMWGroupTN Condensed,BMWGroupTN Condensed_MSFontService,sans-serif" font-style="normal" font-variant="normal" font-weight="700" font-stretch="normal" font-size="55" text-anchor="start" direction="ltr" writing-mode="lr-tb" unicode-bidi="normal" text-decoration="none" transform="matrix(1 0 0 1 423.81 520)">Lifecycle “as built”</text><g clip-path="url(#clip1)"><g clip-path="url(#clip2)"><g clip-path="url(#clip3)"><path d="M15.9843 80.2123C15.3062 80.8905 14.4343 81.0842 13.5625 80.6967 12.6906 80.3092 12.2062 79.5342 12.2062 78.6623 12.2062 77.7905 12.7875 76.9186 13.5625 76.628 14.4343 76.2405 15.3062 76.4342 15.9843 77.1123 16.8562 77.8873 16.8562 79.3405 15.9843 80.2123ZM84.3779 16.3718 76.5311 24.2187 70.3311 22.5718 68.7811 16.4687 76.628 8.62186C71.978 6.87811 66.7467 7.94373 63.0655 11.2375 59.3843 14.6281 57.9311 19.6656 59.1905 24.5093L9.78436 73.9155C8.04061 75.5623 7.36248 78.0811 7.94373 80.4061 8.52498 82.7311 10.3656 84.5717 12.6906 85.1529 15.0156 85.7342 17.4375 85.0561 19.1812 83.3123L68.5874 33.9062C73.4311 35.1656 78.4686 33.7124 81.8592 30.0312 85.1529 26.3499 86.2186 21.0218 84.3779 16.3718Z" fill="#FFFFFF" fill-rule="nonzero" fill-opacity="1" transform="matrix(1.01075 0 0 1 287 454)"/><path d="M83.9904 73.9155 58.9968 48.9218 48.9218 58.9968 73.1405 83.2155 74.0123 84.0873 74.1092 83.9904C76.9186 86.0248 80.7936 85.6373 83.2155 83.2155 85.6373 80.6967 85.9279 76.8217 83.9904 73.9155Z" fill="#FFFFFF" fill-rule="nonzero" fill-opacity="1" transform="matrix(1.01075 0 0 1 287 454)"/><path d="M21.8937 19.1812 21.9906 19.0843 19.4718 14.4343 11.1406 7.74998 7.74998 11.1406 14.4343 19.4718 19.0843 21.9906 19.1812 21.8937 37.6843 40.3968 40.3968 37.6843Z" fill="#FFFFFF" fill-rule="nonzero" fill-opacity="1" transform="matrix(1.01075 0 0 1 287 454)"/></g></g></g><rect x="176.5" y="1348.5" width="4104" height="811" stroke="#FFFFFF" stroke-width="6.875" stroke-linecap="butt" stroke-linejoin="miter" stroke-miterlimit="8" stroke-opacity="1" fill="none"/><rect x="260.5" y="1278.5" width="835" height="107" stroke="#FFFFFF" stroke-width="6.875" stroke-linecap="butt" stroke-linejoin="miter" stroke-miterlimit="8" stroke-opacity="1" fill="#035970" fill-opacity="1"/><text fill="#FFFFFF" fill-opacity="1" font-family="BMWGroupTN Condensed,BMWGroupTN Condensed_MSFontService,sans-serif" font-style="normal" font-variant="normal" font-weight="700" font-stretch="normal" font-size="55" text-anchor="start" direction="ltr" writing-mode="lr-tb" unicode-bidi="normal" text-decoration="none" transform="matrix(1 0 0 1 412.925 1351)">Lifecycle “as planned”</text><g clip-path="url(#clip4)"><g clip-path="url(#clip5)"><g clip-path="url(#clip6)"><path d="M22.5208 19.5833 33.2916 19.5833 33.2916 25.4583 60.7082 25.4583 60.7082 19.5833 71.479 19.5833 71.479 80.2915 22.5208 80.2915 22.5208 19.5833ZM47.0978 11.75C48.6645 11.75 49.9374 13.1208 49.9374 14.6875 49.9374 16.3521 48.6645 17.625 46.9999 17.625 45.3353 17.625 44.0624 16.3521 44.0624 14.6875 44.0624 13.0229 45.3353 11.75 47.0978 11.75ZM16.6458 17.625 16.6458 82.2499C16.6458 84.404 18.4083 86.1665 20.5625 86.1665L73.4374 86.1665C75.5915 86.1665 77.354 84.404 77.354 82.2499L77.354 17.625C77.354 15.4708 75.5915 13.7083 73.4374 13.7083L56.7916 13.7083 56.7916 11.75C56.7916 9.59582 55.0291 7.83332 52.8749 7.83332L41.1249 7.83332C38.9708 7.83332 37.2083 9.59582 37.2083 11.75L37.2083 13.7083 20.5625 13.7083C18.4083 13.7083 16.6458 15.4708 16.6458 17.625Z" fill="#FFFFFF" fill-rule="nonzero" fill-opacity="1" transform="matrix(1 0 0 1 287 1284)"/><path d="M28.3958 33.2916 45.0416 33.2916 45.0416 37.2083 28.3958 37.2083Z" fill="#FFFFFF" fill-rule="nonzero" fill-opacity="1" transform="matrix(1 0 0 1 287 1284)"/><path d="M28.3958 45.0416 45.0416 45.0416 45.0416 48.9582 28.3958 48.9582Z" fill="#FFFFFF" fill-rule="nonzero" fill-opacity="1" transform="matrix(1 0 0 1 287 1284)"/><path d="M28.3958 56.7916 45.0416 56.7916 45.0416 60.7082 28.3958 60.7082Z" fill="#FFFFFF" fill-rule="nonzero" fill-opacity="1" transform="matrix(1 0 0 1 287 1284)"/><path d="M28.3958 68.5415 45.0416 68.5415 45.0416 72.4582 28.3958 72.4582Z" fill="#FFFFFF" fill-rule="nonzero" fill-opacity="1" transform="matrix(1 0 0 1 287 1284)"/><path d="M51.7978 35.0541 53.8541 32.9979 56.3999 35.5437 62.8624 29.0812 64.9186 31.1374 56.3999 39.6562Z" fill="#FFFFFF" fill-rule="nonzero" fill-opacity="1" transform="matrix(1 0 0 1 287 1284)"/><path d="M51.7978 46.8041 53.8541 44.7478 56.3999 47.2937 62.8624 40.8312 64.9186 42.8874 56.3999 51.4062Z" fill="#FFFFFF" fill-rule="nonzero" fill-opacity="1" transform="matrix(1 0 0 1 287 1284)"/><path d="M51.7978 58.5541 53.8541 56.4978 56.3999 59.0436 62.8624 52.5812 64.9186 54.6374 56.3999 63.1561Z" fill="#FFFFFF" fill-rule="nonzero" fill-opacity="1" transform="matrix(1 0 0 1 287 1284)"/><path d="M51.7978 70.304 53.8541 68.2478 56.3999 70.7936 62.8624 64.3311 64.9186 66.3874 56.3999 74.9061Z" fill="#FFFFFF" fill-rule="nonzero" fill-opacity="1" transform="matrix(1 0 0 1 287 1284)"/></g></g></g></g></svg>