<svg width="1440" height="660" viewBox="0 0 1440 660" fill="none" xmlns="http://www.w3.org/2000/svg">
<rect width="1440" height="660" fill="white"/>
<rect width="1440" height="660" fill="url(#paint0_radial_1567_97324)"/>
<path d="M1196.8 338.474V298.181C1196.84 296.958 1196.53 295.749 1195.92 294.688C1195.32 293.627 1194.43 292.755 1193.35 292.168C1192.28 291.581 1191.07 291.303 1189.85 291.364C1188.62 291.425 1187.44 291.823 1186.44 292.514L1026.61 403.136C1022.47 405.999 1017.63 407.675 1012.61 407.983C1007.59 408.292 1002.58 407.221 998.123 404.887C993.667 402.553 989.934 399.044 987.328 394.74C984.721 390.436 983.34 385.5 983.335 380.468V327.14C983.368 318.208 985.566 309.418 989.738 301.522C993.911 293.626 999.934 286.859 1007.29 281.803L1054.81 248.933C1058.48 246.409 1061.47 243.022 1063.53 239.069C1065.58 235.117 1066.63 230.72 1066.59 226.265V188.635V152.422C1066.63 151.19 1066.33 149.97 1065.72 148.9C1065.11 147.829 1064.22 146.951 1063.13 146.362C1062.05 145.773 1060.83 145.498 1059.6 145.568C1058.37 145.637 1057.18 146.048 1056.17 146.755L1022.87 169.99C1019.21 172.528 1016.23 175.919 1014.18 179.868C1012.13 183.817 1011.06 188.207 1011.09 192.659V212.04L970.308 240.376C957.317 249.352 946.685 261.336 939.319 275.308C931.953 289.28 928.069 304.826 928 320.623V380.354C927.977 395.522 932.107 410.407 939.942 423.392C947.776 436.378 959.017 446.967 972.442 454.011C985.867 461.055 1000.96 464.284 1016.09 463.347C1031.23 462.411 1045.81 457.345 1058.27 448.7L1185.02 361.143C1188.67 358.604 1191.66 355.214 1193.71 351.265C1195.76 347.315 1196.82 342.925 1196.8 338.474V338.474Z" fill="#B7C1CE"/>
<path d="M1149.62 217.197L1022.75 304.811C1019.09 307.34 1016.09 310.726 1014.03 314.677C1011.96 318.628 1010.9 323.022 1010.92 327.48V367.773C1010.89 368.997 1011.21 370.204 1011.82 371.262C1012.44 372.32 1013.33 373.189 1014.41 373.773C1015.48 374.358 1016.7 374.636 1017.92 374.577C1019.14 374.518 1020.32 374.125 1021.34 373.44L1181.17 262.761C1185.3 259.898 1190.14 258.222 1195.17 257.914C1200.19 257.605 1205.19 258.676 1209.65 261.01C1214.11 263.344 1217.84 266.853 1220.45 271.158C1223.05 275.462 1224.43 280.397 1224.44 285.43V338.474C1224.42 347.396 1222.24 356.18 1218.09 364.075C1213.93 371.97 1207.93 378.742 1200.59 383.811L1158.12 413.167L1153.25 416.51C1149.58 419.042 1146.6 422.431 1144.54 426.381C1142.49 430.332 1141.43 434.726 1141.47 439.179V449.436V513.135C1141.42 514.367 1141.72 515.587 1142.33 516.657C1142.94 517.728 1143.84 518.606 1144.92 519.195C1146.01 519.784 1147.23 520.059 1148.46 519.989C1149.69 519.92 1150.88 519.509 1151.89 518.802L1185.25 495.794C1188.9 493.259 1191.89 489.869 1193.94 485.919C1195.99 481.969 1197.05 477.577 1197.03 473.125V453.97L1237.69 425.634C1250.74 416.624 1261.41 404.577 1268.78 390.53C1276.15 376.483 1280 360.856 1280 344.991V285.486C1280.03 270.304 1275.89 255.406 1268.05 242.411C1260.2 229.416 1248.95 218.821 1235.51 211.781C1222.06 204.74 1206.95 201.522 1191.81 202.477C1176.66 203.432 1162.07 208.523 1149.62 217.197V217.197Z" fill="#B7C1CE"/>
<defs>
<radialGradient id="paint0_radial_1567_97324" cx="0" cy="0" r="1" gradientUnits="userSpaceOnUse" gradientTransform="translate(768 597.3) rotate(-113.71) scale(621.728 1286.45)">
<stop stop-color="#ADB9C7"/>
<stop offset="1" stop-color="#F3F3F3"/>
</radialGradient>
</defs>
</svg>
