<svg width="38" height="40" viewBox="0 0 38 40" fill="none" xmlns="http://www.w3.org/2000/svg">
<path d="M28.7375 20.6084V16.3041C28.7414 16.1734 28.709 16.0443 28.6439 15.931C28.5789 15.8176 28.4838 15.7244 28.3691 15.6618C28.2544 15.5991 28.1246 15.5694 27.9941 15.5759C27.8635 15.5824 27.7373 15.6249 27.6294 15.6987L10.5419 27.516C10.0997 27.8218 9.5822 28.0008 9.0455 28.0338C8.50879 28.0668 7.97328 27.9524 7.49691 27.703C7.02053 27.4536 6.62142 27.0788 6.34275 26.619C6.06407 26.1592 5.91645 25.632 5.91584 25.0944V19.3976C5.91946 18.4435 6.15438 17.5045 6.60046 16.661C7.04654 15.8175 7.69049 15.0947 8.47715 14.5545L13.5574 11.0432C13.9496 10.7735 14.2696 10.4117 14.4892 9.98945C14.7088 9.56721 14.8213 9.09751 14.8168 8.62162V4.60181V0.733341C14.8215 0.60174 14.7894 0.471448 14.7241 0.357094C14.6588 0.24274 14.5629 0.148852 14.4471 0.0859718C14.3314 0.0230916 14.2004 -0.00629072 14.0689 0.00112395C13.9374 0.00853862 13.8106 0.0524567 13.7027 0.127947L10.1423 2.61006C9.7516 2.88122 9.43276 3.24338 9.21334 3.66528C8.99391 4.08717 8.88048 4.55612 8.88284 5.03164V7.10208L4.52317 10.1291C3.13426 11.0879 1.99766 12.3681 1.21012 13.8607C0.422577 15.3532 0.00742768 17.0139 1.05313e-05 18.7014V25.0823C-0.00248633 26.7026 0.439049 28.2927 1.27668 29.6798C2.11431 31.067 3.31601 32.1982 4.75133 32.9507C6.18664 33.7031 7.80071 34.0481 9.41828 33.9481C11.0358 33.848 12.5951 33.3069 13.9267 32.3833L27.4781 23.03C27.8688 22.7588 28.1876 22.3967 28.407 21.9748C28.6265 21.5529 28.7399 21.0839 28.7375 20.6084Z" fill="#FFA600"/>
<path d="M23.6936 7.65255L10.1301 17.0119C9.73794 17.2821 9.41765 17.6438 9.1971 18.0659C8.97655 18.4879 8.86242 18.9574 8.86463 19.4335V23.7379C8.86219 23.8686 8.8957 23.9975 8.96151 24.1106C9.02731 24.2236 9.12289 24.3164 9.23782 24.3788C9.35275 24.4413 9.48262 24.471 9.61327 24.4647C9.74392 24.4584 9.87035 24.4164 9.97876 24.3433L27.0663 12.5199C27.5085 12.2141 28.026 12.0351 28.5627 12.0021C29.0994 11.9691 29.6349 12.0835 30.1113 12.3329C30.5877 12.5822 30.9868 12.9571 31.2655 13.4169C31.5441 13.8767 31.6917 14.4039 31.6924 14.9415V20.608C31.6901 21.561 31.457 22.4994 31.0131 23.3428C30.5692 24.1862 29.9276 24.9096 29.1432 25.4511L24.6018 28.5871L24.0811 28.9443C23.6896 29.2147 23.3702 29.5767 23.1507 29.9987C22.9312 30.4208 22.8182 30.8901 22.8216 31.3658V32.4616V39.2662C22.817 39.3978 22.8491 39.5281 22.9144 39.6425C22.9797 39.7568 23.0756 39.8507 23.1913 39.9136C23.3071 39.9765 23.438 40.0059 23.5695 39.9984C23.701 39.991 23.8279 39.9471 23.9358 39.8716L27.5022 37.4137C27.8933 37.1429 28.2124 36.7808 28.4319 36.3589C28.6514 35.9369 28.7646 35.4678 28.7617 34.9921V32.9459L33.1092 29.9189C34.5044 28.9564 35.6449 27.6695 36.4328 26.1689C37.2207 24.6684 37.6323 22.999 37.6324 21.3042V14.9475C37.6353 13.3258 37.1934 11.7342 36.3548 10.346C35.5161 8.95778 34.3127 7.82606 32.8756 7.07393C31.4385 6.3218 29.8226 5.97805 28.2037 6.08007C26.5848 6.18209 25.0249 6.72597 23.6936 7.65255Z" fill="#B3CB2D"/>
</svg>
