<svg id="Ebene_1" data-name="Ebene 1" xmlns="http://www.w3.org/2000/svg" viewBox="0 0 282.94 66.06"><defs><style>.cls-1{fill:#ffa600;}.cls-2{fill:#b3cb2d;}.cls-3{fill:#191715;}</style></defs><path class="cls-1" d="M47.46,34V26.89a1.17,1.17,0,0,0-1.83-1L17.41,45.41a4.87,4.87,0,0,1-7.64-4V32A9.75,9.75,0,0,1,14,24l8.39-5.8a4.8,4.8,0,0,0,2.08-4V7.56l0-6.39a1.17,1.17,0,0,0-1.84-1L16.75,4.27a4.84,4.84,0,0,0-2.08,4v3.42l-7.2,5A17.3,17.3,0,0,0,0,30.85V41.39A14.65,14.65,0,0,0,23,53.45L45.38,38A4.84,4.84,0,0,0,47.46,34Z"/><path class="cls-2" d="M39.13,12.6,16.73,28.06a4.83,4.83,0,0,0-2.09,4v7.11a1.18,1.18,0,0,0,1.84,1L44.7,20.64a4.87,4.87,0,0,1,7.64,4V34a9.75,9.75,0,0,1-4.21,8l-7.5,5.18-.86.59h0a4.82,4.82,0,0,0-2.08,4v1.81l0,11.24a1.17,1.17,0,0,0,1.84,1l5.89-4.06a4.83,4.83,0,0,0,2.08-4V54.38l7.18-5a17.29,17.29,0,0,0,7.47-14.23V24.65A14.65,14.65,0,0,0,39.13,12.6Z"/><path class="cls-3" d="M82.22,33.05c0-10.13,7.56-17,17-17a15,15,0,0,1,13.17,6.93.51.51,0,0,1-.2.75l-4,2a.52.52,0,0,1-.67-.18,9.93,9.93,0,0,0-8.31-4.4c-6.28,0-11.12,5-11.12,11.91S93,45,99.27,45a9.83,9.83,0,0,0,8.31-4.39.51.51,0,0,1,.67-.18l4,2a.53.53,0,0,1,.2.76A15,15,0,0,1,99.27,50.1C89.78,50.1,82.22,43.18,82.22,33.05Z"/><path class="cls-3" d="M131.84,46.94a10.1,10.1,0,0,1-7.71,3.16c-3.91,0-8.3-2.62-8.3-7.91,0-5.48,4.39-7.76,8.3-7.76a10,10,0,0,1,7.6,2.94.06.06,0,0,0,.11,0V33.94c0-2.77-2.28-4.45-5.59-4.45a9.68,9.68,0,0,0-6.74,2.71.36.36,0,0,1-.55-.08l-1.75-3a.35.35,0,0,1,.07-.45A14.22,14.22,0,0,1,127.09,25c5.29,0,9.94,2.23,9.94,8.65v15.5a.33.33,0,0,1-.33.32h-4.54a.32.32,0,0,1-.32-.32Zm0-5.21a1.31,1.31,0,0,0-.14-.59A6.47,6.47,0,0,0,126.15,38c-2.91,0-5.09,1.68-5.09,4.3s2.18,4.25,5.09,4.25a7,7,0,0,0,5.47-2.42,1.33,1.33,0,0,0,.22-.73Z"/><path class="cls-3" d="M144.78,44V30.18h-3.6a.35.35,0,0,1-.35-.34V26a.35.35,0,0,1,.35-.35h3.6V19.41a.3.3,0,0,1,.3-.3h4.6a.29.29,0,0,1,.29.3v6.23h4.5a.35.35,0,0,1,.35.35v3.85a.35.35,0,0,1-.35.34H150V42.69c0,1.63.79,2.81,2.28,2.81a3.67,3.67,0,0,0,2.08-.62.22.22,0,0,1,.34.1l1.09,3.46a.19.19,0,0,1-.06.22,7,7,0,0,1-4.79,1.44C146.91,50.1,144.78,47.93,144.78,44Z"/><path class="cls-3" d="M170.14,25c7.16,0,11.76,5.49,11.76,13v.83a.42.42,0,0,1-.41.41h-17.8a.21.21,0,0,0-.2.23,7.23,7.23,0,0,0,7.59,6.34,10.19,10.19,0,0,0,6.56-2.43.25.25,0,0,1,.37,0l2.09,3a.25.25,0,0,1,0,.32,14,14,0,0,1-9.53,3.31c-7.16,0-12.5-5-12.5-12.55C158,30.63,163.07,25,170.14,25Zm-6.38,10.58h12.77a.31.31,0,0,0,.31-.32,6.37,6.37,0,0,0-6.7-6,6.55,6.55,0,0,0-6.69,6A.31.31,0,0,0,163.76,35.62Z"/><path class="cls-3" d="M203.15,34.58c0-3.7-1.88-4.94-4.8-4.94a7.83,7.83,0,0,0-6,3.09.47.47,0,0,0-.09.28V49.22a.29.29,0,0,1-.29.29h-4.62a.29.29,0,0,1-.28-.29V25.92a.29.29,0,0,1,.28-.28h4.62a.29.29,0,0,1,.29.28v2.79a.07.07,0,0,0,.12,0A11.34,11.34,0,0,1,200.63,25c5.14,0,7.71,2.77,7.71,7.66V49.22a.29.29,0,0,1-.29.29h-4.62a.29.29,0,0,1-.28-.29Z"/><path class="cls-3" d="M240.24,35.32H251a.58.58,0,0,1,.58.58v3.3a.58.58,0,0,1-.58.57H240.24a.58.58,0,0,1-.57-.57V35.9A.58.58,0,0,1,240.24,35.32Z"/><path class="cls-3" d="M267,36.78l-9,12.59a.31.31,0,0,1-.26.14h-6.11a.33.33,0,0,1-.27-.52L263.22,32.7a.17.17,0,0,0,0-.19L252.05,17.06a.32.32,0,0,1,.27-.51h6.11a.33.33,0,0,1,.26.13L267,28.47a.15.15,0,0,0,.25,0l8.23-11.79a.34.34,0,0,1,.27-.13h6.16a.32.32,0,0,1,.26.51L271,32.47a.15.15,0,0,0,0,.18L282.88,49a.33.33,0,0,1-.26.52H276.5a.31.31,0,0,1-.26-.14l-9-12.59A.16.16,0,0,0,267,36.78Z"/><path class="cls-3" d="M229.69,46.91A10.08,10.08,0,0,1,222,50.08c-3.91,0-8.31-2.62-8.31-7.91,0-5.49,4.4-7.76,8.31-7.76a9.89,9.89,0,0,1,7.71,3.06V33.92c0-2.77-2.28-4.45-5.59-4.45a9.69,9.69,0,0,0-6.74,2.7.35.35,0,0,1-.55-.08l-1.75-3a.37.37,0,0,1,.07-.46A14.2,14.2,0,0,1,224.94,25c5.29,0,9.93,2.22,9.93,8.65V49.16a.32.32,0,0,1-.32.32H230a.32.32,0,0,1-.32-.32Zm0-5.21a1.3,1.3,0,0,0-.14-.58A6.47,6.47,0,0,0,224,38c-2.91,0-5.09,1.68-5.09,4.3s2.18,4.25,5.09,4.25a7,7,0,0,0,5.46-2.43,1.26,1.26,0,0,0,.23-.73Z"/></svg>